<svg width="121" height="135" viewBox="0 0 121 135" fill="none" xmlns="http://www.w3.org/2000/svg">
<g clip-path="url(#clip0_394_253)">
<path d="M25.4116 60.753C26.0916 59.0729 26.92 57.4589 27.8855 55.9261C28.1086 55.5732 28.338 55.2237 28.5732 54.8795C28.6905 54.7068 28.8101 54.5356 28.9321 54.366C28.9922 54.2809 29.054 54.1963 29.1158 54.1117C29.1568 54.0549 29.4374 53.6784 29.2109 53.9791C28.9844 54.2797 29.4375 53.6884 29.5041 53.6024C29.6336 53.4383 29.7641 53.2736 29.8965 53.1121C30.1825 52.7596 30.4761 52.4126 30.7755 52.0708C31.9762 50.699 33.2718 49.4117 34.6367 48.2039C35.3201 47.5993 36.0248 47.0238 36.7352 46.4506C36.9895 46.2465 36.5749 46.5814 36.5624 46.5844C36.6357 46.5658 36.751 46.4386 36.8125 46.3926C36.9918 46.2552 37.1722 46.1199 37.3544 45.985C37.7749 45.6724 38.1996 45.3645 38.628 45.063C42.0598 42.6485 45.7286 40.5937 49.4517 38.6685C52.7739 36.9503 56.1188 35.2416 59.5396 33.7241C59.9022 33.5638 60.2668 33.4094 60.6307 33.2513C60.9275 33.1223 60.4023 33.3461 60.4013 33.3467C60.5173 33.2889 60.6485 33.2452 60.7673 33.1972C60.9808 33.1111 61.196 33.0254 61.4107 32.9415C62.2051 32.6319 63.0062 32.3412 63.8163 32.0781C65.3813 31.5697 66.9804 31.1586 68.6086 30.9074C68.7025 30.8925 68.7984 30.8809 68.8934 30.8653C69.1992 30.8153 68.6596 30.8948 68.6552 30.8945C68.8721 30.8949 69.1044 30.8435 69.3205 30.8229C69.7314 30.7843 70.1446 30.7572 70.5575 30.7416C71.3856 30.7121 72.2147 30.7305 73.0401 30.8038C73.2144 30.8191 73.4424 30.8872 73.6142 30.864C73.6038 30.8658 73.0885 30.7841 73.39 30.8365C73.4855 30.8535 73.5823 30.8655 73.6771 30.8815C73.8422 30.9079 74.9266 31.244 75.0031 31.1822C74.9758 31.2038 74.5374 30.9388 74.7912 31.0975C74.8136 31.1115 75.0257 31.2403 75.0423 31.2321C75.0057 31.2477 74.6459 30.8583 74.8422 31.0848C75.053 31.3286 74.6843 30.8387 74.6893 30.8473C74.9629 31.3013 74.4782 30.3196 74.6884 30.7993C74.7149 30.8594 74.7812 31.2075 74.6977 30.7909C74.6197 30.3983 74.6597 30.7746 74.6644 30.8803C74.6757 31.1878 74.6647 30.6147 74.6931 30.6267C74.6954 30.6282 74.6044 31.0096 74.5942 30.9799C74.5805 30.9393 74.8397 30.514 74.6809 30.7451C74.6315 30.8167 74.5906 30.9077 74.5487 30.985C74.3392 31.3685 74.8406 30.7133 74.4771 31.0553C74.3996 31.1277 74.3286 31.2063 74.2511 31.2786C74.1924 31.3343 73.8241 31.6192 74.1378 31.3947C74.4515 31.1702 73.9094 31.548 73.8215 31.605C73.6115 31.7434 73.3966 31.876 73.181 32.0047C72.7428 32.2676 72.2987 32.5226 71.8581 32.7813C70.0231 33.8554 68.1888 34.9306 66.3538 36.0047C62.7196 38.1334 59.0848 40.2611 55.4506 42.3899C48.1816 46.6464 40.9126 50.9029 33.6435 55.1594C32.7255 55.6967 31.8086 56.2335 30.8906 56.7708C29.6404 57.5035 29.0835 59.3016 29.8966 60.5625C30.7097 61.8234 32.3476 62.3459 33.6871 61.561C41.3436 57.0769 49.0017 52.5933 56.6582 48.1092C60.504 45.8569 64.3508 43.6039 68.1972 41.3527C70.1034 40.237 72.0079 39.1209 73.9141 38.0052C75.9224 36.8299 78.2173 35.7257 79.4248 33.6305C80.8485 31.1609 80.2732 28.0241 77.8411 26.4538C76.9676 25.8904 75.9061 25.6424 74.8915 25.4868C73.8769 25.3312 72.7709 25.2047 71.7021 25.1835C68.0549 25.1118 64.4094 25.9513 61.0003 27.1936C57.3665 28.5171 53.8971 30.2371 50.4406 31.9596C46.5046 33.9206 42.5822 35.9293 38.8528 38.2663C31.9752 42.5755 25.5476 48.1534 21.7593 55.459C21.326 56.2943 20.9356 57.1517 20.5825 58.0243C20.2988 58.7252 20.1151 59.3335 20.319 60.0979C20.4966 60.7635 21.0134 61.4852 21.6379 61.8028C22.8362 62.4121 24.8316 62.1892 25.4121 60.7513L25.4116 60.753Z" fill="#010101"/>
<path d="M50.1126 41.2414C48.3901 32.6671 46.9161 24.0447 45.6892 15.3865C43.9993 16.0889 42.3089 16.7903 40.6181 17.4934C42.6903 20.33 45.2217 22.7345 48.2655 24.51C49.7113 25.353 51.4357 26.0919 53.1465 25.921C55.4231 25.6938 57.3061 24.3918 58.0134 22.1676C58.4532 20.7819 57.4474 19.0883 56.036 18.7804C54.5069 18.447 53.1224 19.2767 52.6528 20.7555C52.6966 20.6157 52.9256 20.2851 52.7227 20.5677C52.8629 20.3731 53.036 20.1079 52.7887 20.4535C52.6253 20.6816 53.2339 20.1979 52.9721 20.3136C52.8793 20.3549 52.5203 20.5189 52.9307 20.372C53.3988 20.2044 52.8372 20.3852 52.7793 20.4033C52.4068 20.5223 52.8641 20.341 52.9746 20.3935C52.9051 20.3599 52.69 20.3969 52.6089 20.3972C52.1803 20.4005 52.7025 20.4525 52.7415 20.424C52.6315 20.5067 52.0536 20.2347 51.9094 20.1904C51.5636 20.084 52.346 20.4108 52.0287 20.2335C51.9164 20.1706 51.7934 20.1211 51.6781 20.0628C51.1231 19.7788 50.588 19.4532 50.0658 19.1129C49.8236 18.9545 49.5851 18.7926 49.3501 18.6244C49.2962 18.5859 48.9059 18.3056 49.2002 18.5192C49.5258 18.7545 49.0349 18.3874 48.9731 18.3378C48.4939 17.9539 48.0304 17.5508 47.5839 17.1278C47.1374 16.7048 46.7101 16.2634 46.3026 15.8048C46.1108 15.5885 45.9257 15.3668 45.7397 15.1457C45.2827 14.6047 45.9721 15.4682 45.7264 15.1378C45.6187 14.9923 45.5094 14.8491 45.4028 14.703C44.5797 13.5764 43.3116 12.9964 41.955 13.5615C40.5984 14.1265 40.1343 15.4194 40.3317 16.81C41.5575 25.4688 43.0332 34.0916 44.7551 42.6649C45.0413 44.0879 46.779 45.0645 48.1456 44.6363C49.6528 44.1632 50.4178 42.7703 50.1123 41.2459L50.1126 41.2414Z" fill="#010101"/>
<path d="M76.0935 38.6811C75.7735 48.3109 76.5861 57.976 78.4205 67.4356C80.2513 76.8816 83.1853 86.0733 87.047 94.8833C89.1802 99.751 91.6255 104.479 94.3609 109.035L95.355 105.244C88.7969 109.368 82.1452 113.341 75.4019 117.155C72.0654 119.041 68.7081 120.89 65.3289 122.699C63.6759 123.584 62.0173 124.459 60.3537 125.326C59.5216 125.759 58.6899 126.191 57.8553 126.619C57.6743 126.712 57.4928 126.807 57.3112 126.898L57.0938 127.01C56.654 127.214 56.8952 127.163 57.8177 126.855L59.5466 127.831C59.4045 127.566 59.4282 127.641 59.6175 128.055C59.6067 128.059 59.37 127.282 59.3492 127.217C54.7753 112.887 48.7222 99.0021 41.329 85.901C37.2051 78.593 32.6545 71.5283 27.7123 64.7451C26.8605 63.5767 25.2679 62.8779 23.9217 63.7466C22.7652 64.4931 22.0123 66.2829 22.9277 67.5383C31.9253 79.8883 39.6159 93.1812 45.829 107.142C46.2158 108.01 46.5955 108.88 46.9709 109.753C47.1584 110.189 47.3443 110.627 47.5285 111.065C47.6206 111.283 47.7138 111.502 47.8038 111.722C47.5344 111.07 47.9258 112.019 47.9719 112.132C48.6943 113.889 49.3941 115.655 50.0714 117.43C51.4243 120.981 52.6841 124.567 53.8465 128.185C54.2024 129.29 54.4791 130.484 55.315 131.342C56.5455 132.605 58.234 132.584 59.7272 131.879C61.4742 131.055 63.175 130.108 64.884 129.209C68.3478 127.386 71.7907 125.523 75.2107 123.621C82.9771 119.298 90.6265 114.765 98.1498 110.033C99.4051 109.244 99.9372 107.564 99.1438 106.242C96.7439 102.243 94.5651 98.1131 92.6272 93.8706C92.1319 92.7853 91.6516 91.6941 91.1869 90.5952C91.1326 90.4656 91.0596 90.3284 91.0189 90.1951C91.0244 90.2119 91.2203 90.6842 91.0962 90.3812C90.9871 90.1138 90.8763 89.8459 90.7673 89.5785C90.5364 89.0096 90.3097 88.4382 90.0863 87.865C89.2478 85.7084 88.4691 83.5296 87.7498 81.3305C86.2895 76.8634 85.0763 72.3164 84.1178 67.7149C83.6463 65.4496 83.2365 63.1725 82.8906 60.8853C82.8036 60.3138 82.7214 59.7408 82.642 59.1677C82.627 59.0566 82.5262 58.3076 82.5733 58.6641C82.6203 59.0206 82.5612 58.5727 82.5504 58.4833C82.5282 58.3036 82.5049 58.1245 82.4833 57.9459C82.3431 56.7974 82.2194 55.6478 82.1106 54.4968C81.6177 49.2423 81.459 43.9598 81.6349 38.686C81.683 37.2349 80.3247 35.8484 78.864 35.9104C77.3218 35.9744 76.1441 37.1315 76.0929 38.68L76.0935 38.6811Z" fill="#010101"/>
<path d="M60.7477 87.216C60.1346 86.5662 59.5298 85.9088 58.9657 85.2161C58.9058 85.1427 58.8471 85.047 58.7777 84.9819C59.2005 85.3717 58.9914 85.2625 58.8706 85.0947C58.7498 84.9268 58.6367 84.7745 58.5245 84.6117C58.2654 84.2362 58.0238 83.8492 57.8076 83.4473C57.7009 83.2498 57.6118 83.0435 57.5078 82.8458C57.3634 82.5691 57.6069 83.0863 57.6074 83.0946C57.597 83.0107 57.5373 82.9086 57.5089 82.8281C57.4352 82.6213 57.3696 82.4113 57.3155 82.1988C57.2924 82.1081 57.2704 82.0167 57.2512 81.9252C57.232 81.8336 57.1936 81.4236 57.2167 81.8197C57.2419 82.256 57.2006 81.5308 57.1991 81.4232C57.1948 81.2302 57.2071 81.0389 57.2144 80.8463C57.2304 80.373 57.1085 81.3633 57.2362 80.7493C57.2776 80.5467 57.3302 80.3462 57.3918 80.1489C57.3826 80.1771 57.504 79.8137 57.5057 79.8141C57.5193 79.8204 57.2727 80.3283 57.4065 80.0618C57.4993 79.8764 57.5807 79.6861 57.6791 79.5031C57.8744 79.1393 58.1756 78.8078 58.3507 78.4387C58.3507 78.4387 57.9984 78.8828 58.1951 78.6509C58.254 78.5808 58.3094 78.5071 58.3666 78.4366C58.503 78.2699 58.6437 78.1078 58.7872 77.9484C59.0769 77.6265 59.3812 77.3176 59.6928 77.0186C60.3295 76.4071 61.0048 75.8374 61.6867 75.2765C62.0831 74.9495 62.4848 74.6265 62.8872 74.3074C62.9795 74.2335 63.0716 74.1569 63.1664 74.0873C63.1396 74.1072 62.7871 74.3801 63.0494 74.1798C63.3117 73.9796 63.5513 73.7941 63.8048 73.6032C64.2156 73.2935 64.6283 72.9869 65.0457 72.6861C65.178 72.5904 66.2949 71.9297 66.2897 71.9014C66.2972 71.9484 65.7648 72.0522 66.0833 71.9947C66.1024 71.9907 66.3788 71.905 66.3804 71.9126C66.3752 71.8914 65.858 71.975 66.2497 71.9476C66.3266 71.9426 66.6491 71.9699 66.2367 71.9351C65.7107 71.8912 66.6893 72.1462 66.208 71.9348C65.8062 71.7569 66.4574 72.0861 66.5685 72.1568C67.1024 72.4974 66.2785 71.8822 66.6354 72.2005C66.769 72.3195 66.9046 72.4345 67.0362 72.5574C67.3919 72.8907 67.7269 73.2447 68.0597 73.5999C68.3925 73.9551 68.7408 74.3441 69.0699 74.7272C69.2473 74.9333 69.4215 75.1414 69.5942 75.3517C69.6679 75.4414 69.7412 75.5328 69.8139 75.6231C69.8541 75.6724 70.174 76.0665 69.9455 75.7874C69.717 75.5083 69.9686 75.8196 70.0012 75.8634C70.0938 75.9877 70.1874 76.1115 70.2789 76.2365C70.417 76.4242 70.553 76.6131 70.6868 76.8033C71.0001 77.2471 71.3033 77.6981 71.5965 78.1563C71.8253 78.5166 72.0467 78.8812 72.243 79.259C72.3036 79.3749 72.3541 79.4981 72.4179 79.6122C72.5679 79.8814 72.326 79.3961 72.3251 79.3752C72.327 79.5639 72.4851 79.8299 72.5338 80.0184C72.5662 80.1422 72.5861 80.269 72.6157 80.393C72.6871 80.6911 72.5661 80.1665 72.5802 80.154C72.5672 80.1659 72.5568 80.7072 72.5721 80.7311C72.4433 80.5251 72.676 80.2522 72.567 80.5928C72.54 80.6785 72.504 80.778 72.4882 80.8657C72.4362 81.143 72.5516 80.6788 72.5863 80.6528C72.5175 80.7059 72.4629 80.9176 72.4212 80.9976C72.3173 81.1981 72.2008 81.3917 72.0785 81.5802C72.0254 81.6626 71.9698 81.7407 71.9166 81.8231C71.7771 82.0359 71.6546 81.9847 72.0004 81.72C71.6482 81.9884 71.348 82.5291 71.061 82.8678C70.3013 83.7667 69.5188 84.646 68.715 85.5035C68.3125 85.9325 67.9042 86.3564 67.4911 86.7746C67.4088 86.8583 67.3266 86.942 67.2426 87.0253C67.1783 87.0885 66.7243 87.4121 67.0678 87.1973C67.3314 87.0334 67.72 86.8736 68.0422 86.8468C68.0993 86.842 68.7699 86.9529 68.7437 87.0082C68.739 87.0195 68.1728 86.6407 68.1091 86.5951C68.0182 86.5297 67.9283 86.4637 67.838 86.3994C67.4972 86.1573 68.3548 86.8084 67.7897 86.3605C67.352 86.0137 66.9201 85.6621 66.5008 85.2931C65.6347 84.5299 64.8229 83.7107 64.0572 82.8461C63.0943 81.7583 61.0851 81.8308 60.1379 82.8919C59.0785 84.0784 59.1551 85.6479 60.1877 86.8135C60.9778 87.7054 61.8172 88.5498 62.7145 89.3348C63.6985 90.1948 64.7465 91.0816 65.8693 91.7521C66.5521 92.1599 67.3355 92.3833 68.1286 92.3914C69.2811 92.4022 70.2472 91.7982 71.063 91.0493C71.9758 90.2124 72.8107 89.264 73.638 88.3443C75.2861 86.5129 77.2395 84.5404 77.9045 82.0997C78.6265 79.4488 77.4413 76.945 75.9992 74.7824C74.5571 72.6199 72.9064 70.5249 71.0361 68.718C70.1006 67.814 69.0319 67.0505 67.7859 66.6475C66.2699 66.1581 64.6837 66.4789 63.3087 67.2103C62.2846 67.7539 61.3588 68.5442 60.4423 69.2477C59.3114 70.1163 58.1913 70.9985 57.1012 71.9175C55.4807 73.2832 53.9261 74.8302 52.8922 76.7027C51.5755 79.087 51.2638 81.9523 52.251 84.5174C53.2382 87.0826 55.0013 89.1919 56.8794 91.1855C57.8757 92.2425 59.8299 92.2249 60.7988 91.1397C61.8325 89.9825 61.8163 88.3505 60.7489 87.2181L60.7477 87.216Z" fill="#010101"/>
</g>
<defs>
<clipPath id="clip0_394_253">
<rect width="73" height="113" fill="white" transform="translate(0 36.8044) rotate(-30.2763)"/>
</clipPath>
</defs>
</svg>
