<svg width="102" height="134" viewBox="0 0 102 134" fill="none" xmlns="http://www.w3.org/2000/svg">
<g clip-path="url(#clip0_394_258)">
<path d="M91.6768 116.805C90.8289 115.726 89.9823 114.644 89.1385 113.562C88.7285 113.036 88.3186 112.509 87.9086 111.983C87.7205 111.741 87.5324 111.498 87.3428 111.256C87.2642 111.155 86.975 110.783 87.3569 111.274C87.2502 111.137 87.1449 111.001 87.0396 110.864C85.4924 108.866 83.9509 106.864 82.4178 104.857C79.7278 101.335 77.0603 97.7958 74.4251 94.2347C70.4056 88.8028 66.4534 83.3192 62.6529 77.7336C60.1539 74.0606 57.7138 70.3443 55.4338 66.5315C54.072 64.2553 52.7579 61.9427 51.6038 59.5533C51.4073 59.1478 51.2177 58.7395 51.0324 58.3285C50.9524 58.1509 50.8752 57.9733 50.7979 57.7944C50.5775 57.2896 51.163 58.6682 51.0029 58.2781C50.9678 58.1929 50.9313 58.1076 50.8976 58.0223C50.3023 56.5682 49.7899 55.0749 49.328 53.5747C49.0865 52.7903 48.8619 51.9976 48.6934 51.1936C48.6583 51.0245 48.6288 50.8539 48.5965 50.6847C48.4955 50.1702 48.671 51.5264 48.626 50.9196C48.6162 50.7798 48.6008 50.64 48.5979 50.5002C48.5951 50.3254 48.6611 49.706 48.5699 50.4135C48.4913 51.0175 48.5109 50.7868 48.546 50.6595C48.6457 50.3002 48.2666 51.2719 48.3059 51.1992C48.0013 51.7543 46.9413 52.5135 46.0399 52.466C45.7128 52.4492 45.4194 52.3947 45.1218 52.2646C44.5672 52.0228 44.9126 52.157 45.0221 52.2381C45.0768 52.2786 45.1428 52.3164 45.2018 52.3513C45.6693 52.624 44.7792 51.9584 45.0193 52.2101C45.7704 52.9917 46.6086 53.7257 47.392 54.4779C50.4259 57.3903 54.0846 59.4204 58.0466 60.8018C61.7207 62.0825 65.6939 62.7439 69.5856 62.7551C73.2977 62.7662 77.0477 62.1511 80.4059 60.5334C81.8351 59.8455 83.211 58.8793 84.2724 57.6993C84.681 57.2449 85.0488 56.7499 85.4208 56.2662C85.5444 56.1054 85.6679 55.9418 85.7901 55.7796C85.8603 55.6859 85.9333 55.5937 86.0021 55.4986C86.2197 55.1966 85.4854 56.132 85.8884 55.6454C86.1551 55.3224 86.4219 55.0022 86.7195 54.7058C86.8515 54.5744 87.1856 54.3801 87.2628 54.2165C87.2572 54.2291 86.7223 54.5856 86.9975 54.429C87.1351 54.3507 87.2628 54.2528 87.4018 54.1731C87.5254 54.1018 88.1768 53.7705 87.7486 53.983C87.3204 54.1955 88.0771 53.9005 88.2189 53.8669C88.3144 53.8446 88.5727 53.7607 88.6906 53.7747C88.6317 53.7677 87.9423 53.8166 88.5264 53.8208C88.81 53.8236 89.0908 53.8152 89.3744 53.8306C90.5705 53.8991 91.6432 54.0473 92.8435 53.8054C95.7371 53.2238 97.5145 50.5351 98.34 47.915C98.9872 45.861 99.2722 43.6198 99.3958 41.4778C99.5193 39.3358 99.3677 37.2973 98.903 35.2769C97.8627 30.7511 94.6027 26.9131 89.8868 26.0225C87.3765 25.5485 84.8256 25.6436 82.3041 25.9736C79.9019 26.2882 77.5475 26.7663 75.2478 27.5395C70.6246 29.0915 66.3959 31.4837 62.6698 34.6142C61.0103 36.0082 59.4968 37.5629 58.1406 39.2505C57.5987 39.9258 57.2154 40.5746 57.2154 41.475C57.2154 42.2468 57.5594 43.1682 58.1406 43.6995C59.2989 44.7579 61.489 45.0585 62.608 43.6995C66.3551 39.1443 68.3572 33.6033 68.6211 27.7297C68.8682 22.2013 67.4923 16.5388 64.7729 11.7165C63.4321 9.33961 61.7081 7.10395 59.6934 5.25418C57.551 3.28696 55.0505 1.54625 52.251 0.661212C49.3322 -0.260178 46.0301 -0.288141 43.2278 1.00376C41.9123 1.61057 40.7246 2.66898 40.0268 3.9427C38.9416 5.9239 38.9093 8.18333 39.5144 10.3253C40.1195 12.4673 40.9689 14.4471 41.7074 16.4856C42.495 18.6556 43.2812 20.8241 44.0688 22.9941C45.6426 27.3326 47.2165 31.6711 48.7903 36.0096C50.3374 34.8253 51.8832 33.6411 53.4304 32.4568C41.6245 24.6928 28.7812 18.492 15.3692 14.0081C13.6943 13.4488 12.0109 12.9161 10.3192 12.4128C8.62741 11.9094 6.96092 11.2803 5.25231 11.3572C2.85436 11.4648 0.638918 12.9217 0.141918 15.3783C-0.227321 17.2113 0.21352 19.0918 0.665593 20.8731C2.14817 26.7076 5.18632 32.0933 9.20584 36.5647C13.6802 41.5421 19.5347 45.2962 25.9508 47.248C25.6995 45.3311 25.4482 43.4143 25.1969 41.4988C13.9273 49.8053 6.84579 62.6614 5.47413 76.5256C5.08664 80.4362 5.27617 84.3315 5.87005 88.2114C5.97675 88.9091 6.71523 89.7718 7.32173 90.0919C8.07004 90.4862 8.92365 90.6456 9.75619 90.4093C18.0901 88.0366 25.3415 82.4775 29.9324 75.1735C31.2521 73.0749 32.3023 70.8113 33.1432 68.4833C31.1131 67.9255 29.0816 67.3676 27.0515 66.8111C24.1551 77.5155 24.749 89.2656 28.9749 99.5449C29.5575 100.963 30.1065 102.344 31.1875 103.472C32.4932 104.837 34.3717 105.368 36.2053 105.02C39.0258 104.485 40.7176 101.508 41.4139 98.9815C42.6283 94.5703 42.5918 89.8123 42.4514 85.2781C42.2956 80.2307 41.9727 75.1861 42.2366 70.1346C42.3068 68.7853 42.4149 67.4361 42.5708 66.0939C42.5904 65.9219 42.6129 65.7513 42.6326 65.5793C42.7028 64.9767 42.6326 65.5304 42.6213 65.6409C42.6592 65.2927 42.721 64.946 42.7744 64.6006C42.8923 63.8526 43.0243 63.1074 43.1731 62.365C43.555 60.4579 44.0534 58.5885 44.6655 56.743C46.002 52.719 47.0719 48.6867 47.8946 44.523C48.0771 43.6002 48.247 42.6704 48.4856 41.7588C48.5643 41.461 48.6597 41.1716 48.7566 40.8794C48.9363 40.3397 48.3537 41.6008 48.6415 41.1646C48.6653 41.1297 48.8029 40.8193 48.8479 40.8249C48.8928 40.8305 48.2849 41.51 48.5067 41.2751C48.5418 41.2387 48.5783 41.1996 48.6176 41.1688C48.6962 41.1059 47.8398 41.7197 48.1571 41.5267C48.1992 41.5016 48.2413 41.4736 48.2863 41.454C48.1487 41.5156 47.3709 41.7742 47.8805 41.6498C47.8356 41.661 46.9188 41.7896 47.5983 41.7225C48.0406 41.6791 47.0185 41.7127 47.0901 41.6512C47.1013 41.6414 47.2867 41.6903 47.3204 41.7001C47.479 41.749 47.6376 41.8008 47.7963 41.8497C48.2442 41.9909 47.0101 41.4596 47.6587 41.8078C47.8496 41.9112 48.0392 42.0147 48.2231 42.1307C48.3719 42.2244 48.5151 42.3279 48.6611 42.4244C49.0599 42.6886 48.4098 42.2272 48.393 42.2118C48.4646 42.2831 48.5586 42.3447 48.6373 42.4104C48.984 42.7026 49.3112 43.0172 49.6158 43.3513C49.6972 43.4408 50.1886 44.0602 49.8306 43.5792C49.4726 43.0983 49.9331 43.733 49.9963 43.8295C50.0946 43.9777 50.1872 44.1287 50.2757 44.2825C50.3248 44.3692 50.3711 44.4559 50.4161 44.544C50.5986 44.9047 50.4329 44.955 50.3332 44.3175C50.3571 44.4699 50.4441 44.6251 50.4849 44.7761C50.5087 44.8614 50.5186 44.9522 50.5466 45.0361C50.666 45.3829 50.4975 44.2224 50.4919 44.5845C50.4891 44.7453 50.4891 44.9243 50.4961 45.0837C50.4329 43.7219 50.673 44.8963 50.4694 44.9005C50.3978 44.9005 50.9496 44.0253 50.6042 44.5426C50.5368 44.6432 50.4736 44.7607 50.4119 44.8642C50.2195 45.1899 50.2701 44.7956 50.5775 44.6712C50.5214 44.6936 50.3613 44.9145 50.3332 44.9425C50.2279 45.0515 49.6987 45.4849 50.1072 45.1801C50.5158 44.8753 50.1605 45.1396 50.0553 45.2025C49.9233 45.2822 49.7941 45.3675 49.6593 45.443C49.5498 45.5045 49.4361 45.5562 49.3266 45.6164C48.8801 45.8666 49.4909 45.5507 49.5611 45.5311C49.3168 45.5982 49.0781 45.7128 48.8338 45.7883C48.2975 45.9547 47.7528 46.0498 47.2024 46.1575C46.8528 46.226 47.5703 46.1127 47.5506 46.1141C47.4214 46.1183 47.2867 46.1449 47.1575 46.1561C46.8964 46.1812 46.6352 46.1994 46.3741 46.212C45.6918 46.2455 45.0052 46.2427 44.3215 46.2302C43.6378 46.2176 42.9667 46.1896 42.29 46.1435C41.6133 46.0973 40.9324 45.9212 40.2894 45.9505C40.3666 45.9463 41.0335 46.0596 40.4649 45.9729C40.3567 45.9561 40.2486 45.9407 40.1419 45.924C39.864 45.8806 39.586 45.8331 39.308 45.7827C38.7633 45.6821 38.2199 45.566 37.6822 45.4304C37.233 45.3172 36.7879 45.1913 36.3471 45.0473C36.173 44.99 35.9989 44.9313 35.8262 44.8684C35.5875 44.7817 34.7859 44.4377 35.8444 44.8921C35.033 44.544 34.3001 44.3315 33.41 44.5747C32.6771 44.7761 31.8825 45.3395 31.5217 46.0204C30.8028 47.3753 31.0345 49.6291 32.6547 50.324C34.7044 51.2048 36.7907 51.7585 39.0033 52.0703C41.7424 52.4562 44.5911 52.7274 47.354 52.4254C50.0735 52.129 52.9291 51.3922 54.8638 49.3215C56.7718 47.2788 57.3039 44.7076 56.213 42.1349C55.3201 40.0293 53.7547 38.3613 51.9127 37.0316C50.2757 35.8502 48.0448 35.0141 46.0273 35.6251C43.9537 36.2529 42.9105 38.118 42.3953 40.081C41.8126 42.2957 41.4827 44.5789 40.9717 46.8118C40.4901 48.9146 39.9229 50.9951 39.2504 53.0462C38.7633 54.5283 38.2396 55.9977 37.8268 57.5022C36.3358 62.9438 35.822 68.6595 35.8136 74.2871C35.8065 79.2324 36.2249 84.1693 36.1912 89.1146C36.1828 90.2793 36.1477 91.4426 36.0649 92.6044C36.0298 93.105 35.9848 93.6041 35.9287 94.1019C35.916 94.2109 35.8164 95.1393 35.8753 94.5703C35.9273 94.0669 35.8809 94.5129 35.8613 94.6402C35.836 94.8024 35.8107 94.9645 35.7827 95.1253C35.6956 95.6399 35.5959 96.1516 35.4794 96.6605C35.3531 97.2142 35.1088 97.7483 34.9894 98.2964C35.0049 98.2251 35.3208 97.6169 35.0737 98.0783C35.0133 98.1915 34.96 98.309 34.8982 98.4222C34.8294 98.5494 34.4952 98.9297 34.4995 99.0626C34.4966 98.9899 35.0189 98.5019 34.6539 98.85C34.5725 98.9283 34.4854 99.0164 34.4096 99.0989C34.1597 99.3702 34.2678 98.9633 34.6539 98.9172C34.5697 98.9269 34.039 99.2359 34.6033 98.9773C35.0372 98.7787 34.8041 98.8878 34.6806 98.9186C35.5047 98.7102 35.2969 98.8738 35.0414 98.857C35.909 98.9185 35.603 98.9633 35.3727 98.8976C34.8617 98.7522 35.5454 98.9717 35.6016 98.9968C35.1425 98.7913 35.763 99.0514 35.7897 99.1534C35.7981 99.1856 35.5412 98.8738 35.5257 98.8766C35.6774 98.8486 35.902 99.4359 35.6718 99.0402C35.5707 98.8668 35.4668 98.699 35.3727 98.5201C35.2618 98.3076 35.186 97.9846 35.0372 97.8014C35.0933 97.8699 35.2941 98.4306 35.0681 97.8685C35.0063 97.7147 34.9431 97.5623 34.8827 97.4099C34.623 96.7584 34.3773 96.1012 34.1471 95.4385C33.2527 92.8659 32.5788 90.2192 32.131 87.5333C32.0762 87.2075 32.0257 86.8818 31.978 86.5546C31.9625 86.4469 31.8937 85.9142 31.9485 86.3602C32.0032 86.8063 31.94 86.2736 31.926 86.1645C31.8418 85.4682 31.773 84.7705 31.7182 84.0714C31.6143 82.7138 31.5652 81.352 31.5736 79.9916C31.582 78.6312 31.6466 77.2694 31.7688 75.9146C31.8277 75.2588 31.8867 74.5989 31.9864 73.9474C31.8642 74.7457 32.0173 73.7684 32.051 73.5587C32.1085 73.1923 32.1717 72.826 32.2377 72.4611C32.482 71.1217 32.7866 69.7948 33.1418 68.4791C33.5714 66.8922 32.6055 64.9879 30.9362 64.609C29.1602 64.2064 27.6496 65.1459 27.0501 66.8055C26.897 67.2278 26.7314 67.643 26.5685 68.0611C26.4155 68.4554 26.8184 67.4948 26.6457 67.8807C26.6036 67.9744 26.5629 68.0709 26.5208 68.1646C26.4085 68.4162 26.2933 68.6665 26.174 68.9154C25.7725 69.7543 25.3302 70.575 24.8543 71.3747C24.3784 72.1745 23.8645 72.9533 23.3198 73.7069C23.178 73.9026 23.0306 74.0942 22.8888 74.2885C22.6824 74.5709 23.0699 74.0536 23.0671 74.062C23.0278 74.1585 22.8663 74.3151 22.8101 74.3864C22.5069 74.7625 22.1952 75.133 21.8765 75.4951C20.62 76.9199 19.2399 78.2355 17.7545 79.4212C17.6759 79.4841 17.5832 79.5442 17.5102 79.6141C17.5074 79.6169 18.0185 79.231 17.7391 79.4379C17.5439 79.5819 17.3516 79.7288 17.1564 79.87C16.7647 80.1538 16.366 80.4278 15.9617 80.6935C15.153 81.2248 14.3204 81.7197 13.4668 82.1755C13.0091 82.4202 12.5472 82.6523 12.0783 82.8732C11.8284 82.9907 11.5771 83.1053 11.3244 83.2172C10.6603 83.5094 11.7161 83.069 11.2191 83.2633C10.1858 83.666 9.14547 84.0323 8.07846 84.3357C9.37431 85.0683 10.6688 85.801 11.9646 86.5322C11.952 86.4511 11.9323 85.952 11.8719 85.91L11.9281 86.3309C11.9099 86.1925 11.893 86.054 11.8762 85.9156C11.8354 85.5689 11.7975 85.2221 11.7652 84.874C11.6866 84.0407 11.6333 83.2046 11.6038 82.3685C11.5504 80.8361 11.5785 79.3009 11.6866 77.7699C11.74 77.0051 11.8144 76.2417 11.9084 75.4797C11.9253 75.3413 11.9464 75.2029 11.9618 75.0645C11.8593 75.9971 11.9379 75.2616 11.966 75.0715C12.0278 74.6576 12.0966 74.2452 12.171 73.8327C12.4476 72.2863 12.8042 70.754 13.2366 69.2439C13.669 67.7339 14.1786 66.2435 14.7613 64.7824C14.8259 64.6202 14.8918 64.458 14.9578 64.2958C15.0687 64.026 15.0308 63.7142 14.9241 64.3713C14.9789 64.0316 15.2485 63.6317 15.3931 63.3171C15.7286 62.5859 16.0824 61.8644 16.4544 61.1514C17.1663 59.7896 17.9468 58.4613 18.7892 57.175C19.2104 56.5318 19.6484 55.8999 20.1019 55.2791C20.2915 55.019 20.4824 54.6471 20.7295 54.4402C20.1525 54.9225 20.5891 54.6205 20.7519 54.4164C20.926 54.1983 21.1015 53.9802 21.2798 53.7649C22.3693 52.4464 23.536 51.1894 24.7715 50.0066C25.4018 49.4026 26.0519 48.8168 26.7187 48.2519C27.0388 47.9807 27.3632 47.7136 27.6917 47.4522C27.8363 47.3375 28.3445 46.8481 27.7141 47.427C27.9163 47.241 28.1662 47.0858 28.3866 46.9236C29.4354 46.1505 30.0784 45.148 29.8945 43.789C29.726 42.5404 28.8471 41.5435 27.6313 41.173C26.9827 40.9759 26.3397 40.7619 25.7037 40.5243C25.4496 40.4292 25.1969 40.3313 24.9456 40.2306L24.7574 40.1537C24.4429 40.0237 24.5075 40.0503 24.9498 40.2348C24.9427 40.1803 24.4387 40.0083 24.3924 39.9888C23.2215 39.4575 22.0829 38.8576 20.9822 38.1949C20.4318 37.8635 19.8899 37.5154 19.3592 37.1547C19.1079 36.9827 18.858 36.8079 18.6109 36.6304C18.4733 36.5311 18.3371 36.4318 18.201 36.3298C17.5594 35.8516 18.6067 36.6625 18.1139 36.2668C17.1087 35.4601 16.1372 34.6226 15.2162 33.7208C14.2952 32.819 13.3826 31.8193 12.5487 30.7958C12.442 30.6644 12.3367 30.5316 12.2314 30.4002C11.8621 29.9402 12.3423 30.5567 12.3521 30.5553C12.2735 30.5623 11.8032 29.8171 11.7484 29.7402C11.3539 29.1907 10.9748 28.6301 10.6126 28.0596C9.90641 26.9467 9.2648 25.7946 8.69199 24.609C8.56002 24.3349 8.43086 24.0609 8.30731 23.7826C8.23851 23.6288 8.17113 23.4736 8.10374 23.3198C7.91982 22.9032 8.39857 24.0623 8.14866 23.4177C7.89876 22.7732 7.66009 22.1608 7.44388 21.5204C7.03533 20.304 6.69838 19.0652 6.44005 17.8083C6.39934 17.6098 6.36564 17.4084 6.32352 17.2113C6.27017 16.9666 6.35862 16.7555 6.34177 17.435C6.34458 17.3022 6.31229 17.1539 6.30668 17.0197L6.30106 16.8128C6.31791 16.4619 6.29544 16.5374 6.23507 17.0421C6.24911 17.0337 6.32914 16.6324 6.33054 16.659C6.34458 16.9023 6.068 17.2001 5.91076 17.3707C6.26877 16.982 5.48958 17.723 5.27196 17.6783L5.44465 17.6223C5.77739 17.5496 5.68192 17.5566 5.15543 17.6433C5.24669 17.7048 6.31791 17.6237 5.71421 17.6377C5.19194 17.6503 5.75492 17.6601 5.88689 17.6908C6.01887 17.7216 6.14382 17.7524 6.27158 17.7859C7.06481 17.9942 7.85243 18.2347 8.63864 18.4696C10.2504 18.9492 11.8537 19.4553 13.45 19.9852C16.5218 21.0059 19.5614 22.1216 22.5645 23.3268C23.3057 23.6247 24.047 23.9225 24.7813 24.2356C24.1678 23.9728 24.5946 24.1574 24.7237 24.2119C24.9175 24.2944 25.1098 24.3769 25.3036 24.4594C25.729 24.6411 26.153 24.8257 26.5755 25.0116C28.0764 25.6702 29.566 26.3525 31.0457 27.0571C37.685 30.2198 44.1011 33.841 50.242 37.8789C51.2935 38.571 52.8028 38.3627 53.7505 37.6329C54.6981 36.903 55.3088 35.5034 54.882 34.3262C52.3016 27.2109 49.7197 20.0957 47.1392 12.9804C46.8248 12.1122 46.5089 11.2453 46.1944 10.3771C45.8799 9.50879 45.404 8.54546 45.3773 7.63805C45.3997 8.38327 45.4054 7.83799 45.4138 7.71635V7.46328C45.4362 7.09976 45.425 7.12632 45.3773 7.54157C45.4096 7.53039 45.5809 6.85228 45.5865 6.81173C45.5809 6.84529 45.2102 7.54717 45.4475 7.16827C45.5219 7.04942 45.5921 6.92638 45.6637 6.80614C45.849 6.49715 45.7662 6.98371 45.4208 7.11094C45.5149 7.07599 45.6819 6.84249 45.7549 6.7642C46.1817 6.31399 45.0965 7.16827 45.7213 6.79076C45.9248 6.66772 46.1466 6.57544 46.3488 6.45241C45.4812 6.97532 46.0919 6.56146 46.426 6.46639C46.7237 6.3811 47.0297 6.34615 47.3288 6.26925C46.3235 6.52791 47.0859 6.3028 47.4425 6.28602C47.7163 6.27344 47.99 6.27204 48.2638 6.28043C48.5376 6.28882 48.8198 6.31539 49.0978 6.34055C49.3463 6.36153 49.554 6.49994 48.7594 6.29441C48.9475 6.34335 49.1511 6.36013 49.3434 6.39788C49.8671 6.50414 50.3838 6.64535 50.8878 6.82012C51.038 6.87325 51.1995 6.95994 51.3553 6.9935C51.3272 6.9865 50.6084 6.65234 51.0549 6.86906C51.3497 7.01167 51.6417 7.15428 51.9281 7.31507C52.4378 7.6017 52.9334 7.91069 53.4163 8.23926C53.6564 8.40284 53.8909 8.57482 54.1267 8.744C54.2966 8.86564 54.5156 9.11591 53.9021 8.56783C54.0523 8.70205 54.2208 8.8195 54.3752 8.94813C55.2864 9.70174 56.1358 10.5308 56.915 11.4187C57.1045 11.6354 57.2912 11.8549 57.4737 12.0786C57.5439 12.1653 57.6127 12.266 57.69 12.3485C57.0652 11.6787 57.4766 12.073 57.6169 12.2604C57.9792 12.7469 58.3217 13.2475 58.6474 13.7592C59.2834 14.7631 59.8478 15.8103 60.3392 16.8925C60.3996 17.0253 60.4543 17.1595 60.5161 17.291C60.6972 17.6769 60.2058 16.5206 60.4347 17.1022C60.5414 17.3735 60.6495 17.6433 60.7506 17.9159C60.9626 18.4892 61.1549 19.0708 61.3276 19.6567C61.6645 20.8032 61.9271 21.972 62.1124 23.1535C62.1278 23.2555 62.2051 23.8456 62.1321 23.2541C62.0591 22.6627 62.1307 23.2541 62.1433 23.3562C62.177 23.6456 62.2065 23.935 62.2317 24.2259C62.2837 24.8355 62.316 25.4465 62.3258 26.0575C62.337 26.7258 62.3258 27.3941 62.2865 28.061C62.2668 28.4078 62.2388 28.7545 62.2051 29.1013C62.1938 29.2159 62.1812 29.332 62.1686 29.4466C62.1559 29.5613 62.1419 29.6773 62.1278 29.792C62.1994 29.2718 62.2177 29.1362 62.1826 29.3851C61.958 30.698 61.7053 31.9899 61.3037 33.2636C61.1044 33.8956 60.8362 34.5024 60.6256 35.1287C60.9598 34.1374 60.5695 35.235 60.4515 35.4811C60.3139 35.7677 60.1707 36.0501 60.0219 36.3298C59.7088 36.917 59.3691 37.4888 59.0026 38.0439C58.8103 38.3347 58.6109 38.6214 58.4046 38.9024C58.3372 38.9947 58.2543 39.0869 58.1954 39.1834C58.7036 38.3641 58.3021 39.0408 58.1434 39.2337L62.6108 43.6827C63.9895 41.9658 65.5324 40.3872 67.2242 38.9751C67.4208 38.8101 67.6201 38.6479 67.8209 38.4885C68.44 37.9964 67.512 38.7094 67.9655 38.3739C68.419 38.0383 68.9146 37.6818 69.4017 37.3532C70.3157 36.738 71.2606 36.1676 72.2293 35.6433C72.6814 35.3986 73.1391 35.1637 73.6024 34.9386C73.834 34.8267 74.0671 34.7163 74.3001 34.61C74.4854 34.5247 75.4851 34.1556 74.6567 34.4408C75.6999 34.0815 76.7093 33.6439 77.7665 33.3181C78.8237 32.9923 79.8177 32.7393 80.8622 32.524C81.4013 32.4121 81.9446 32.3142 82.4894 32.2289C82.5989 32.2122 82.707 32.1982 82.8165 32.18C83.2559 32.1087 82.1903 32.2527 82.6326 32.2038C82.9246 32.1716 83.2166 32.1353 83.5087 32.1073C84.6585 31.9955 85.8196 31.9325 86.9764 31.9703C87.2628 31.9801 87.5492 31.9955 87.8356 32.0206C87.9255 32.029 88.2807 32.0304 88.3228 32.071C88.3354 32.0835 87.7065 31.9535 88.0869 32.0486C88.3621 32.1171 88.6443 32.1562 88.9181 32.2289C89.0739 32.2695 89.2298 32.3156 89.3842 32.3646C89.4712 32.3925 90.1269 32.6106 89.6874 32.4624C89.3224 32.3394 89.9472 32.6009 90.0707 32.6708C90.2504 32.7714 90.4203 32.8861 90.5958 32.9923C91.2149 33.3629 90.1971 32.6246 90.579 32.963C90.7699 33.1322 90.9608 33.2971 91.1419 33.4775C91.2809 33.6173 91.4073 33.7669 91.5407 33.9109C91.8987 34.2968 91.1405 33.3209 91.5098 33.8732C91.7625 34.2507 91.9998 34.6324 92.2033 35.0393C92.3311 35.2951 92.442 35.8446 92.2047 34.9931C92.2581 35.1861 92.355 35.3748 92.4209 35.5636C92.567 35.983 92.6891 36.4095 92.7916 36.8415C92.8463 37.0764 92.8969 37.3127 92.9404 37.549C92.9643 37.6804 93.0724 38.4326 92.9994 37.8538C92.9264 37.2749 93.0148 38.0201 93.0303 38.1698C93.0541 38.4172 93.0724 38.6647 93.0864 38.9136C93.1398 39.8545 93.1271 40.7997 93.0625 41.7393C93.0317 42.1769 92.9867 42.6131 92.939 43.0507C92.88 43.5848 92.9699 42.8144 92.9797 42.7697C92.9545 42.8885 92.9446 43.0172 92.925 43.136C92.8871 43.3779 92.8477 43.6198 92.8028 43.8603C92.7495 44.1539 92.2834 46.8244 92.0433 46.8118C92.0292 46.8118 92.3929 46.0903 92.1191 46.6314C92.0728 46.7223 92.0292 46.8146 91.9815 46.9055C91.8973 47.0635 91.6502 47.3347 91.6165 47.5123C91.6853 47.153 91.9984 47.097 91.7386 47.3501C91.6446 47.4424 91.5491 47.543 91.4592 47.6381C91.3961 47.7052 91.1153 47.9177 91.4677 47.6521C91.9464 47.2914 91.2809 47.7486 91.2809 47.7416C91.2683 47.6647 92.0503 47.5319 91.5154 47.6353C91.4452 47.6493 91.316 47.6661 91.2529 47.6982C91.0058 47.8269 91.5926 47.6185 91.6516 47.6465C91.6038 47.6227 91.368 47.6577 91.2922 47.6577C90.7853 47.6577 90.2827 47.5892 89.7787 47.5458C88.4814 47.4354 87.1154 47.5319 85.8855 47.9737C84.5616 48.4476 83.4076 49.1397 82.3841 50.1073C81.6077 50.8427 80.9787 51.7305 80.3371 52.5792C80.2669 52.6729 80.1939 52.7638 80.1265 52.8589C79.9286 53.1329 80.3806 52.5401 80.3554 52.5666C80.2023 52.7344 80.069 52.926 79.9201 53.0979C79.6913 53.3622 79.447 53.6125 79.1873 53.8488C79.075 53.9508 78.9528 54.0445 78.8405 54.148C78.5513 54.4164 79.5397 53.6614 78.9514 54.0599C78.6678 54.2514 78.387 54.4416 78.0908 54.6135C77.7946 54.7855 77.5152 54.9323 77.2189 55.0749C77.0673 55.1476 76.9087 55.2106 76.7598 55.2861C77.7145 54.8023 77.0238 55.1756 76.7627 55.2735C76.0396 55.5447 75.2969 55.7614 74.5444 55.9376C74.1766 56.0229 73.8073 56.0984 73.4367 56.1641C73.2472 56.1977 73.0576 56.2298 72.8681 56.2578C72.0271 56.3864 73.4929 56.1977 72.7951 56.2662C71.9625 56.3487 71.1328 56.413 70.2974 56.4312C69.4017 56.4493 68.5046 56.4284 67.6117 56.3682C67.1554 56.3375 66.6991 56.2983 66.2442 56.248C66.0308 56.2242 65.8174 56.1851 65.604 56.1725C65.6476 56.1753 66.4239 56.2927 65.8932 56.2103C65.7711 56.1907 65.649 56.1739 65.5268 56.1543C63.6792 55.8649 61.8555 55.4245 60.0837 54.8303C59.6709 54.6918 59.261 54.545 58.8552 54.3898C58.632 54.3046 58.3947 54.1773 58.1645 54.1158C58.1392 54.1088 58.8047 54.3968 58.4916 54.2528C58.3512 54.1885 58.2094 54.1298 58.0676 54.0669C57.2323 53.6922 56.4152 53.2769 55.6233 52.8197C54.8315 52.3625 54.1057 51.8718 53.377 51.3488C52.9404 51.0357 53.9611 51.8284 53.3882 51.3558C53.231 51.2258 53.0709 51.0986 52.9165 50.9657C52.463 50.5784 52.0306 50.1688 51.6038 49.7535C49.832 48.0268 47.8581 45.629 45.0726 46.2763C42.2563 46.9306 42.1215 49.9968 42.495 52.2632C42.8782 54.5926 43.729 56.8814 44.5742 59.0807C44.9252 59.9923 45.3113 60.8913 45.717 61.7805C46.6942 63.9197 47.8272 65.9876 49.0051 68.0219C51.0142 71.4922 53.179 74.8729 55.4015 78.2104C58.8272 83.3556 62.403 88.4002 66.0435 93.3958C71.2648 100.561 76.6307 107.622 82.0654 114.628C83.7754 116.833 85.491 119.033 87.2137 121.228C87.677 121.818 88.7356 122.149 89.4474 122.149C90.2224 122.149 91.1476 121.806 91.6811 121.228C92.9545 119.846 92.7719 118.168 91.6811 116.779L91.6768 116.805Z" fill="#010101"/>
<path d="M74.5654 91.226C74.682 90.7394 74.8139 90.2585 74.9684 89.7831C75.04 89.5622 75.1172 89.3427 75.1972 89.1245C75.2435 89.0001 75.2927 88.8771 75.339 88.7526C75.4878 88.3598 75.318 88.8211 75.2492 88.9526C75.7139 88.0661 76.1098 87.1671 76.6489 86.3198C76.9171 85.899 77.2119 85.4991 77.4983 85.0908C77.6962 84.8098 77.3017 85.3383 77.3074 85.3313C77.3958 85.2349 77.4744 85.1216 77.5573 85.0195C77.7468 84.7874 77.9419 84.5609 78.1427 84.3372C78.811 83.592 79.5326 82.8943 80.3006 82.2526C80.3764 82.1882 80.858 81.8611 80.8453 81.8107C80.8509 81.8331 80.2121 82.2791 80.6853 81.9394C80.7667 81.8807 80.8467 81.8205 80.9281 81.7632C81.3634 81.4514 81.8084 81.1564 82.2661 80.8796C82.6943 80.6195 83.131 80.3748 83.5774 80.1455C83.7852 80.0393 83.9944 79.9358 84.2064 79.8365C84.2962 79.7932 84.3875 79.7513 84.4787 79.7107C84.5335 79.6855 85.147 79.4199 84.6514 79.6296C84.1558 79.8393 84.9013 79.5359 85.0179 79.4926C85.2678 79.3989 85.5191 79.3108 85.7718 79.2283C86.2463 79.0717 86.7265 78.9347 87.2108 78.8145C87.6952 78.6942 88.1838 78.595 88.6766 78.5139C88.7748 78.4971 88.8745 78.4845 88.9728 78.4677C89.394 78.3978 88.3017 78.5404 88.7271 78.5027C88.9925 78.4789 89.2564 78.4482 89.5232 78.4286C90.023 78.3936 90.5242 78.3783 91.024 78.3852C91.2584 78.388 91.4943 78.4132 91.7274 78.409C92.1429 78.402 91.0984 78.2412 91.4943 78.3685C91.7877 78.4621 91.9337 78.6299 91.3876 78.2958C91.4662 78.3433 90.4624 77.2947 90.7249 77.6778C90.9538 78.0119 90.5508 77.0905 90.6491 77.489C90.7179 77.7659 90.819 78.0385 90.9004 78.3111C91.1124 79.0158 91.323 79.7205 91.535 80.4252C92.3282 83.0677 93.1201 85.7102 93.9133 88.3528C94.3092 89.674 94.7065 90.9953 95.1025 92.3166C95.2836 92.9192 95.4099 93.5875 95.657 94.1663L95.7286 94.4194C95.8171 93.9258 95.9069 93.4337 95.9954 92.9401C96.4334 92.0034 97.0596 92.0733 96.557 92.3207C96.6342 92.283 97.2519 92.097 96.7479 92.2243C96.6145 92.2578 96.4825 92.3012 96.3478 92.3347C96.081 92.4018 95.8129 92.4522 95.5419 92.5039C94.9761 92.6116 96.2691 92.4382 95.4675 92.5053C94.9564 92.5486 94.4412 92.557 93.9288 92.5403C93.4163 92.5235 92.8912 92.4689 92.3732 92.4144C92.0138 92.3767 92.7017 92.4592 92.6919 92.4564C92.5627 92.4214 92.4083 92.413 92.2749 92.392C91.9955 92.3459 91.7161 92.297 91.4381 92.2424C86.9146 91.377 82.3588 89.7313 77.7201 90.8625C72.6392 92.1012 69.354 96.7403 66.3312 100.636C63.0572 104.852 60.0303 109.243 57.3235 113.843C54.6251 118.43 51.1728 124.365 54.1548 129.642C55.2948 131.659 57.4218 133.369 59.72 133.845C62.6852 134.457 65.4987 133.246 67.0922 130.665C68.4091 128.532 68.7278 125.815 69.2627 123.416C69.8622 120.723 70.4631 118.03 71.0626 115.339C71.363 113.992 71.6621 112.646 71.9625 111.299C72.3191 109.697 71.4767 107.819 69.7569 107.429C68.1578 107.067 66.254 107.909 65.8708 109.626C64.6802 114.971 63.5949 120.353 62.2893 125.671C62.1741 126.141 62.0155 126.593 61.8793 127.057C61.7614 127.458 62.1559 126.502 61.9664 126.871C61.92 126.96 61.8807 127.054 61.8344 127.142C61.7726 127.259 61.708 127.377 61.6378 127.49C61.5803 127.584 61.2616 128.084 61.5396 127.654C61.8639 127.15 61.2349 127.932 61.2335 127.903C61.2265 127.805 61.8723 127.529 61.4244 127.724C61.3528 127.754 61.1717 127.837 61.1268 127.879C61.1633 127.845 61.753 127.697 61.4974 127.707C61.4048 127.711 61.2686 127.752 61.183 127.787C60.9232 127.893 61.6013 127.725 61.6224 127.732C61.5382 127.708 61.3149 127.736 61.2166 127.742C60.5357 127.777 61.7867 127.903 61.3219 127.763C61.1647 127.715 60.8348 127.57 60.6761 127.571C60.686 127.571 61.2897 127.883 61.0355 127.721C60.9401 127.659 60.8278 127.617 60.7267 127.561C60.5779 127.479 59.9812 127.046 60.3841 127.374C60.8151 127.725 60.2521 127.25 60.1595 127.162C60.0275 127.036 59.8295 126.718 59.6737 126.637C59.692 126.647 60.0345 127.185 59.8983 126.918C59.845 126.815 59.765 126.72 59.7032 126.62C59.6161 126.478 59.2848 125.794 59.501 126.286C59.7285 126.805 59.4421 126.036 59.4126 125.912C59.4041 125.877 59.3564 125.583 59.3452 125.582C59.4477 125.594 59.3747 126.193 59.3662 125.682C59.362 125.396 59.3424 125.112 59.3536 124.825C59.3592 124.662 59.3803 124.499 59.3873 124.336C59.4056 123.894 59.2287 125.081 59.3971 124.319C59.5235 123.747 59.6639 123.187 59.8548 122.633C59.9096 122.474 59.9713 122.316 60.0289 122.158L60.0752 122.039C60.1412 121.874 60.137 121.881 60.0612 122.061L60.0008 122.202C60.0514 122.085 60.1033 121.969 60.1567 121.853C60.2451 121.658 60.3364 121.465 60.429 121.274C61.5508 118.974 62.8986 116.768 64.2478 114.595C65.6054 112.407 67.0346 110.263 68.5298 108.168C69.2781 107.12 70.0433 106.084 70.8253 105.061C70.9292 104.925 71.0317 104.785 71.1384 104.653C71.0668 104.741 70.7551 105.142 71.1187 104.679C71.3041 104.443 71.4894 104.207 71.6761 103.97C72.0762 103.466 72.4806 102.965 72.8891 102.467C73.6739 101.511 74.4615 100.553 75.3095 99.6527C75.6746 99.2654 76.0508 98.8893 76.4467 98.5342C76.5071 98.4797 77.0448 98.1119 77.0504 98.0211C77.042 98.1791 76.5745 98.3524 76.9507 98.1049C77.108 98.0015 77.2582 97.891 77.4169 97.7904C77.6387 97.6491 77.8647 97.5163 78.0978 97.3933C78.1666 97.3569 78.4853 97.2311 78.5021 97.1919C78.4979 97.2003 77.9237 97.4115 78.2424 97.2982C78.7548 97.1164 79.2631 96.9515 79.798 96.8438C79.9285 96.8172 80.0619 96.7991 80.1925 96.7739C80.5393 96.7054 79.8359 96.8186 79.8485 96.82C80.0998 96.8382 80.3946 96.7711 80.6488 96.7613C81.1556 96.7417 81.6624 96.7543 82.1678 96.7893C82.4065 96.8061 82.6452 96.8312 82.8839 96.8536C83.4595 96.9081 82.6999 96.8522 82.6606 96.8186C82.7042 96.8564 83.0467 96.876 83.0734 96.8802C83.5943 96.9626 84.1137 97.0619 84.6304 97.1696C85.717 97.3947 86.7939 97.6603 87.8749 97.9064C90.117 98.4181 92.4448 98.8935 94.7557 98.8348C95.9757 98.804 97.2617 98.6586 98.4298 98.2895C100.411 97.6645 102.159 96.0846 101.989 93.8391C101.874 92.311 101.239 90.7814 100.8 89.3203C100.404 87.999 100.006 86.6778 99.6106 85.3565C98.8173 82.714 98.0255 80.0714 97.2323 77.4289C96.7142 75.7008 96.2776 73.9712 94.6574 72.9198C93.4472 72.1341 91.9281 72.0697 90.5242 72.0907C81.2848 72.2277 72.8919 78.3056 69.3975 86.7127C69.0142 87.6369 68.7053 88.5835 68.4723 89.5552C68.0904 91.1533 68.9763 93.038 70.6779 93.4253C72.2995 93.793 74.1541 92.9401 74.564 91.2288L74.5654 91.226Z" fill="#010101"/>
</g>
<defs>
<clipPath id="clip0_394_258">
<rect width="102" height="134" fill="white"/>
</clipPath>
</defs>
</svg>
