<svg width="112" height="113" viewBox="0 0 112 113" fill="none" xmlns="http://www.w3.org/2000/svg">
<g clip-path="url(#clip0_394_275)">
<path d="M32.4258 81.0532C30.7137 82.1867 29.8514 84.2455 29.1643 86.0862C28.4191 88.0852 28.1842 90.1057 28.2196 92.2153C28.2549 94.325 28.4871 96.2032 29.0099 98.1405C29.5167 100.017 30.1392 101.884 31.1519 103.553C32.2667 105.393 33.6495 106.908 35.6226 107.86C37.4756 108.753 39.7115 108.757 41.7055 108.365C45.0346 107.712 48.1593 106.234 50.8598 104.193C56.0421 100.277 59.6186 94.1527 60.3763 87.7511C60.8306 83.9163 60.0919 80.2209 58.8485 76.6117C58.188 74.6939 57.3966 72.8249 56.6588 70.9356C56.2838 69.9745 55.9202 69.0083 55.5967 68.0279C55.5186 67.7921 55.4422 67.5542 55.3694 67.316C55.3376 67.2141 55.3002 67.1109 55.275 67.0071C55.2967 67.0976 55.4189 67.5189 55.2872 67.04C55.1555 66.5611 55.0249 66.0705 54.9043 65.5829C53.872 61.3994 53.205 57.1539 51.9492 53.0247C50.7309 49.0184 49.0811 45.1447 47.0373 41.4893C46.4637 40.465 45.8518 39.464 45.2315 38.4668C45.1106 39.6622 44.9892 40.8566 44.8693 42.0515C48.2702 39.4921 51.7732 37.0688 55.3752 34.7966C55.5947 34.6576 55.814 34.5211 56.0339 34.3831C56.1286 34.3234 56.9353 33.8128 56.391 34.1602C56.8273 33.8821 57.2757 33.6197 57.7201 33.354C58.609 32.8202 59.5035 32.2962 60.4033 31.7811C62.2674 30.7132 64.1535 29.6861 66.0598 28.6958L62.676 27.428C67.688 36.39 72.7011 45.3515 77.7136 54.3145C79.1408 56.8659 80.568 59.4173 81.9947 61.9677C82.651 60.78 83.3085 59.5918 83.9644 58.4031C80.9301 59.1106 77.9913 60.5321 75.6437 62.5892C73.7157 64.2779 72.1755 66.3744 71.1912 68.7314C70.2922 70.8845 69.9884 73.1621 70.0741 75.4681C70.197 78.7887 71.4639 81.9497 72.9092 84.8912C73.8602 86.826 74.9829 88.8398 76.909 89.9747C78.3354 90.8152 79.8677 91.0927 81.524 90.9227C82.8681 90.7849 84.2031 90.3223 85.482 89.9131C90.5874 88.2788 95.4084 85.5278 99.4383 82.002C102.849 79.0177 106.171 74.9703 106.37 70.268C106.49 67.4235 105.475 64.8634 104.324 62.323C103.174 59.7826 102.033 57.2674 100.887 54.7398C98.5955 49.6842 96.3038 44.6275 94.0125 39.5719C89.43 29.4607 84.847 19.3484 80.2635 9.23766C79.1811 6.84972 78.1273 4.02236 75.4324 3.03239C74.069 2.53096 72.5815 2.639 71.1813 2.94782C69.7811 3.25665 68.2833 3.73036 66.8992 4.29042C64.3839 5.30725 62.0184 6.65888 59.6559 7.98074C57.219 9.34333 54.7923 10.726 52.377 12.1284C47.413 15.0102 42.5011 17.9774 37.6322 21.0157C35.4004 22.4089 33.1374 23.774 30.9685 25.2627C29.076 26.5609 27.3715 28.1225 26.2977 30.1647C25.0607 32.5162 25.287 35.349 26.3776 37.6937C26.7093 38.4071 27.1452 39.0677 27.5851 39.7178C27.6356 39.7916 27.6825 39.8684 27.7315 39.9416C27.9155 40.2129 27.2875 39.2068 27.4633 39.5102C27.4907 39.5573 27.5206 39.6045 27.5479 39.6516C28.1018 40.5957 28.5313 41.614 28.927 42.6326C29.5513 44.2401 30.0762 45.8858 30.5682 47.5389C30.5839 47.5937 30.6003 47.647 30.616 47.7018C30.7281 48.0782 30.4258 47.0475 30.5094 47.3377C30.5462 47.4647 30.5825 47.5906 30.6193 47.7176C30.699 47.9935 30.7781 48.271 30.8557 48.5478C31.017 49.1236 31.1751 49.7007 31.3301 50.2793C31.6804 51.5877 32.014 52.9012 32.3364 54.2172C34.199 61.8226 35.7363 69.5093 37.1942 77.2031C37.6717 79.7245 38.1378 82.2485 38.5951 84.7752C39.9424 83.951 41.2896 83.1267 42.6358 82.3029C40.0724 80.4319 36.0609 78.8775 33.0145 80.6933C32.4047 81.0565 31.9244 81.4322 31.6591 82.1147C31.4322 82.6985 31.4211 83.4961 31.7053 84.0613C32.2635 85.1716 33.8516 86.0659 35.0891 85.3291C35.3044 85.2006 35.5288 85.1174 35.7543 85.0116C36.0294 84.8823 35.1215 85.1415 35.5547 85.0774C35.6945 85.0569 35.8307 85.0256 35.9713 85.0097C36.0688 84.9982 36.5117 84.9669 36.0732 84.9913C35.6347 85.0156 36.086 85.0004 36.1883 85.0078C36.4767 85.0259 36.7563 85.08 37.041 85.1232C37.3455 85.1687 36.4411 84.9379 36.9621 85.1091C37.0957 85.1532 37.2327 85.1908 37.3658 85.2364C37.6715 85.3406 37.9703 85.4629 38.2634 85.5975C38.3348 85.6311 38.7988 85.8736 38.4656 85.6913C38.1324 85.509 38.5999 85.7734 38.6664 85.8129C38.9983 86.0118 39.317 86.229 39.6296 86.4575C41.3692 87.7267 44.0597 86.1393 43.6703 83.9853C42.142 75.5354 40.5335 67.0966 38.6511 58.7199C37.5084 53.6325 36.2804 48.5474 34.6865 43.5815C33.8991 41.1284 33.0309 38.668 31.5904 36.5121C31.5223 36.4102 31.4526 36.3104 31.3824 36.2095C31.0625 35.7492 31.7129 36.7998 31.4329 36.2944C31.3305 36.1103 31.2285 35.9272 31.1365 35.7384C31.0283 35.516 30.9294 35.2895 30.8424 35.0589C30.7989 34.9448 30.6876 34.7547 30.6938 34.6345C30.6918 34.6774 30.8291 35.2416 30.7343 34.7388C30.6836 34.4746 30.6257 34.2137 30.5957 33.9452C30.5794 33.8053 30.5707 33.6658 30.5616 33.5252C30.5946 34.0322 30.5717 33.5701 30.5818 33.4444C30.5907 33.344 30.6011 33.2441 30.6161 33.1434C30.6289 33.0573 30.7629 32.6128 30.624 33.0212C30.479 33.4496 30.7105 32.7809 30.7414 32.7016C30.8073 32.5274 30.9908 32.2772 31.0149 32.0933C31.0077 32.1472 30.6901 32.6207 30.9234 32.2777C31.009 32.1528 31.085 32.0235 31.1721 31.8993C31.2898 31.7316 31.4139 31.5697 31.5439 31.4126C31.6095 31.3326 31.6794 31.2568 31.745 31.1767C32.0869 30.7604 31.405 31.5106 31.663 31.2592C32.0076 30.9244 32.3555 30.5969 32.7268 30.291C34.4764 28.8527 36.479 27.7055 38.3895 26.4981C39.5381 25.7726 40.6886 25.0513 41.8424 24.3346C42.0991 24.1753 42.3557 24.0159 42.6118 23.858C42.7401 23.7784 42.8684 23.6987 42.9972 23.62C42.5319 23.9061 42.9688 23.6377 43.0844 23.5661C43.6948 23.1903 44.3062 22.8166 44.9185 22.4424C49.4933 19.6532 54.1122 16.9346 58.7715 14.2894C61.0363 13.0038 63.2969 11.7003 65.6107 10.5017C66.7739 9.89827 67.9577 9.33262 69.1764 8.85032C69.7495 8.62349 70.3319 8.42841 70.9168 8.23342C71.3275 8.09662 70.3064 8.38541 70.9855 8.21628C71.126 8.18061 71.2651 8.14184 71.4056 8.10617C71.7444 8.02132 72.0864 7.94369 72.4294 7.87925C72.6652 7.83555 72.9017 7.80758 73.1387 7.77202C73.5837 7.7064 73.0849 7.78618 73.0087 7.75848C73.0849 7.78618 73.2697 7.76282 73.3622 7.7709C73.4196 7.77612 73.9576 7.89023 73.5628 7.78004C73.2098 7.68207 73.5705 7.81122 73.6588 7.83229C73.9666 7.90475 73.1845 7.47452 73.5879 7.78858C73.6932 7.87005 73.8032 7.95069 73.9107 8.0287C74.1793 8.22624 73.5188 7.54748 73.8321 7.97609C73.8963 8.06359 73.9751 8.14456 74.0419 8.22963C74.1088 8.3147 74.1721 8.40875 74.2373 8.49832C74.5006 8.86022 74.1637 8.40387 74.1466 8.34601C74.282 8.79976 74.6286 9.26659 74.8282 9.70404C75.9501 12.1608 77.0571 14.6231 78.1728 17.0827C80.3713 21.9338 82.5697 26.7849 84.7682 31.6359C89.1652 41.3381 93.5627 51.0388 97.9597 60.7409C99.0121 63.0619 100.174 65.3622 100.995 67.7772C101.127 68.1655 100.864 67.1667 100.997 67.8107C101.024 67.9434 101.061 68.0749 101.089 68.2071C101.146 68.4725 101.192 68.7411 101.225 69.0107C101.241 69.1455 101.255 69.2817 101.266 69.4179L101.276 69.5838C101.284 69.8039 101.286 69.8044 101.28 69.5845L101.277 69.4188C101.278 69.5003 101.276 69.5828 101.272 69.6647C101.268 69.8002 101.26 69.9371 101.25 70.0729C101.23 70.3167 101.2 70.5587 101.16 70.7992C101.139 70.9325 101.109 71.0656 101.086 71.1984C101.02 71.5802 101.075 71.0329 101.131 71.0396C101.147 71.0412 100.701 72.3315 100.659 72.4332C100.564 72.6625 100.46 72.888 100.351 73.1112C100.302 73.2111 100.25 73.3084 100.201 73.4083C100.051 73.7129 100.45 72.9818 100.274 73.2733C99.997 73.7321 99.7196 74.1864 99.4083 74.6237C99.1277 75.0176 98.8293 75.3996 98.5187 75.7711C98.3541 75.9684 98.1856 76.1625 98.0132 76.3534C97.9378 76.4367 97.8507 76.5189 97.7822 76.6064C97.9426 76.3999 98.0836 76.2898 97.8244 76.5554C96.1724 78.248 94.2941 79.7402 92.326 81.0538C92.0619 81.2301 91.7954 81.4037 91.527 81.5733C91.4549 81.6191 91.0666 81.8535 91.3708 81.6716C91.7295 81.4579 91.1298 81.8129 91.1198 81.8186C90.5722 82.1415 90.017 82.4506 89.4548 82.7467C88.33 83.3379 87.1747 83.8722 85.9952 84.3469C85.4712 84.5578 84.9422 84.7575 84.4102 84.9449C84.1108 85.0504 83.8094 85.1519 83.5073 85.2488C83.3726 85.2918 83.2379 85.3347 83.1037 85.3762C83.0027 85.4078 82.9012 85.4384 82.7998 85.469C83.0881 85.3832 83.1399 85.3675 82.9526 85.4216C82.4166 85.5638 81.8856 85.7198 81.3391 85.816C81.0874 85.8606 80.8352 85.8845 80.5818 85.9138C79.9875 85.9844 80.9456 85.9661 80.5862 85.9069C80.4348 85.8819 80.2723 85.8767 80.1183 85.8628C79.5691 85.8131 80.2474 85.8743 80.2259 85.8962C80.2012 85.9221 79.889 85.7812 79.843 85.7622C79.6858 85.699 79.5584 85.5235 79.7683 85.7437C80.0254 86.0132 79.7379 85.7177 79.642 85.6543C79.4689 85.5389 79.311 85.3622 79.1305 85.2637C79.5184 85.4759 79.4195 85.5486 79.2598 85.3765C79.1482 85.2558 79.035 85.1371 78.9277 85.012C78.7843 84.8425 78.6493 84.6667 78.5201 84.4871C78.4393 84.3737 78.3643 84.2564 78.2851 84.141C78.0865 83.854 78.5469 84.5975 78.3804 84.2925C78.1669 83.9021 77.9564 83.5128 77.7612 83.113C77.2051 81.9795 76.6532 80.8441 76.2014 79.6639C76.0635 79.3027 75.933 78.9383 75.8138 78.5712C75.7484 78.3692 75.5958 77.7624 75.8095 78.5867C75.7521 78.3663 75.6865 78.1497 75.6312 77.9283C75.4243 77.1022 75.2742 76.2606 75.198 75.4106C75.1808 75.2155 75.1671 75.0201 75.1582 74.8238C75.1538 74.733 75.1618 74.6194 75.1468 74.5272C75.2388 75.1018 75.1484 74.9308 75.1536 74.7381C75.1671 74.2535 75.1855 73.7717 75.2423 73.2888C75.2556 73.1703 75.5022 71.9817 75.4706 71.9613C75.5152 71.9883 75.3243 72.4904 75.4318 72.1208C75.4703 71.9886 75.5057 71.8553 75.5457 71.7236C75.619 71.4818 75.6998 71.2429 75.7877 71.0057C75.9716 70.5104 76.19 70.0306 76.4279 69.5582C76.5549 69.3048 76.4075 69.3559 76.3967 69.6142C76.3998 69.5485 76.549 69.3532 76.5928 69.2804C76.7567 69.0117 76.93 68.7474 77.1117 68.4905C77.4084 68.0709 77.7292 67.6689 78.0701 67.2839L78.1294 67.2178C78.3194 67.0103 78.2872 67.0445 78.0311 67.3199C78.0469 67.2658 78.2503 67.0993 78.2734 67.0754C78.4742 66.878 78.6803 66.6868 78.8918 66.5019C79.2358 66.1996 79.595 65.914 79.965 65.6445C80.1527 65.5073 80.3428 65.3753 80.5357 65.2469C80.6195 65.1909 80.7047 65.1379 80.7885 65.0819C81.1742 64.8277 80.3554 65.3252 80.6407 65.174C81.3429 64.7991 82.0262 64.413 82.7621 64.1022C83.2882 63.8791 83.8238 63.6914 84.365 63.5135C84.8057 63.3682 83.5991 63.7264 84.0989 63.593C84.1795 63.5717 84.2592 63.5484 84.3388 63.5277C84.4644 63.495 84.5904 63.4633 84.7173 63.4337C85.5404 63.2422 86.1704 62.8514 86.5766 62.1033C86.933 61.448 87.0687 60.5514 86.687 59.8691C81.675 50.9071 76.6619 41.9456 71.6495 32.9825C70.2223 30.4311 68.7951 27.8797 67.3683 25.3293C66.7295 24.1871 65.3059 23.375 63.9846 24.0615C56.1591 28.1262 48.6622 32.8413 41.6211 38.1413C41.1399 38.5037 40.7374 39.2378 40.6951 39.8342C40.6437 40.5669 40.8749 41.1114 41.2578 41.7264C41.0132 41.3338 41.2538 41.7232 41.356 41.8927C41.4874 42.1108 41.6178 42.3295 41.7476 42.5496C42.0057 42.9893 42.258 43.4328 42.504 43.8791C42.9793 44.7397 43.4325 45.6126 43.8628 46.4957C44.7248 48.2627 45.4976 50.0733 46.1778 51.9178C46.5053 52.8062 46.811 53.7019 47.0954 54.6058C47.1715 54.8487 47.2445 55.093 47.3196 55.3364C47.4089 55.6253 47.2923 55.2361 47.283 55.2069C47.3168 55.3104 47.3433 55.4173 47.3725 55.5217C47.5119 56.012 47.6445 56.5041 47.7704 56.998C48.2518 58.8821 48.6254 60.791 49.0145 62.6954C49.4189 64.6733 49.8556 66.6392 50.4243 68.5757C50.989 70.5004 51.6947 72.3683 52.4379 74.2304C53.1355 75.9794 53.8481 77.7255 54.4241 79.519C54.4672 79.6543 54.5087 79.789 54.5513 79.9233C54.5663 79.971 54.6683 80.3136 54.5766 80.0022C54.4848 79.6909 54.6564 80.2954 54.681 80.3895C54.8087 80.8678 54.9225 81.3485 55.0217 81.8333C55.1829 82.6242 55.3039 83.4233 55.3664 84.2287C55.3802 84.4105 55.3914 84.5921 55.4001 84.7737C55.4046 84.8706 55.4179 85.4038 55.4117 84.9899C55.4055 84.576 55.4088 85.1989 55.4079 85.2834C55.4053 85.4651 55.3991 85.6471 55.3915 85.8286C55.3601 86.5276 55.2899 87.2267 55.1829 87.9189C55.1307 88.2526 55.0704 88.585 55.002 88.916C54.9702 89.0687 54.9369 89.2209 54.9015 89.374C54.7723 89.9301 55.0179 88.946 54.868 89.4978C54.684 90.1774 54.4646 90.848 54.2137 91.5068C53.9628 92.1656 53.6988 92.7672 53.3976 93.3781C53.3162 93.5431 53.2329 93.7065 53.1481 93.8693C53.1116 93.9388 53.071 94.0077 53.0375 94.0783C53.0318 94.0907 53.3024 93.6074 53.1613 93.8486C52.9752 94.1656 52.7941 94.4853 52.5985 94.7978C51.8432 96.0051 50.9689 97.1197 50.0136 98.1765C49.8261 98.3841 50.2102 97.9724 50.1991 97.9785C50.1304 98.0179 50.0269 98.1558 49.9786 98.2046C49.8676 98.3173 49.7557 98.428 49.6422 98.5381C49.3789 98.7944 49.1077 99.0444 48.8318 99.2866C48.2997 99.7534 47.7439 100.195 47.1674 100.608C46.8906 100.806 46.6084 100.998 46.322 101.183C46.2556 101.225 46.1893 101.267 46.123 101.309C45.8793 101.466 46.3952 101.145 46.3749 101.153C46.1879 101.222 46.0068 101.371 45.8312 101.468C45.2136 101.813 44.5786 102.126 43.928 102.403C43.6139 102.538 43.2967 102.663 42.9762 102.78C42.8277 102.834 42.6793 102.886 42.5294 102.937C42.3391 103.001 41.659 103.168 42.4367 102.976C41.7008 103.158 40.9764 103.357 40.2229 103.461C40.0092 103.49 39.7958 103.513 39.5813 103.529C39.5326 103.532 39.3425 103.518 39.3059 103.546C39.3218 103.534 39.7959 103.555 39.5135 103.537C39.0862 103.511 38.6751 103.473 38.2507 103.417C37.9698 103.38 38.4402 103.446 38.4464 103.466C38.4419 103.453 38.1466 103.375 38.0989 103.358C37.9373 103.301 37.7829 103.233 37.6252 103.169C37.2144 103.001 38.0637 103.444 37.5369 103.117C37.3719 103.014 37.2109 102.903 37.0557 102.786C36.976 102.725 36.4834 102.301 36.7866 102.576C37.0899 102.851 36.6771 102.455 36.6112 102.383C36.341 102.089 36.0926 101.778 35.8627 101.451C35.7419 101.279 35.5126 100.759 35.7978 101.379C35.7272 101.224 35.6208 101.079 35.5387 100.929C35.3443 100.576 35.1668 100.212 35.0022 99.8446C34.6431 99.0421 34.3531 98.2124 34.0891 97.3735C33.9974 97.0819 34.132 97.5336 34.1397 97.5425C34.0946 97.4922 34.0786 97.3164 34.0603 97.2504C33.9997 97.0228 33.9423 96.7938 33.8895 96.5639C33.7829 96.1047 33.6907 95.6414 33.6125 95.1757C33.4625 94.2783 33.3656 93.3709 33.3228 92.4614C33.3186 92.3681 33.2955 91.7738 33.3073 92.0826C33.319 92.3914 33.3089 92.0583 33.3098 92.0072C33.3122 91.8726 33.3115 91.7369 33.3149 91.6019C33.324 91.1663 33.3424 90.729 33.382 90.2946C33.4206 89.8829 33.4909 89.4805 33.5654 89.0737C33.624 88.7569 33.6871 89.0267 33.5353 89.1713C33.5732 89.1357 33.5933 88.9598 33.608 88.9087C33.6662 88.7059 33.7289 88.5047 33.7971 88.3048C34.0587 87.5299 34.3657 86.7558 34.7264 86.0206C34.7518 85.9684 34.8524 85.8295 34.8504 85.7747C34.8594 86.013 34.6348 86.1321 34.8078 85.8754C34.9082 85.7278 35.0028 85.5754 35.1117 85.4327C35.1655 85.3629 35.2263 85.2973 35.2787 85.2269C35.482 84.9541 34.9111 85.5299 35.1868 85.3348C35.3531 85.2171 35.5006 85.0794 35.6724 84.9654C36.7963 84.2213 36.8927 82.3247 36.0346 81.3807C35.0302 80.2747 33.6288 80.2564 32.4237 81.0542L32.4258 81.0532Z" fill="#010101"/>
</g>
<defs>
<clipPath id="clip0_394_275">
<rect width="83.7385" height="86.0017" fill="white" transform="translate(0 34.2054) rotate(-24.1093)"/>
</clipPath>
</defs>
</svg>
