<svg width="88" height="114" viewBox="0 0 88 114" fill="none" xmlns="http://www.w3.org/2000/svg">
<g clip-path="url(#clip0_394_270)">
<path d="M9.03145 67.5463C8.01663 73.3102 7.00144 79.0753 5.98662 84.8393C5.79284 85.9379 6.81968 87.2268 7.8416 87.5059C8.97037 87.8143 10.2522 87.4494 10.9042 86.4232C11.1886 85.975 11.4886 85.5368 11.809 85.1127C11.9581 84.9139 12.112 84.7193 12.2679 84.5265C12.3464 84.4303 12.4269 84.336 12.505 84.2409C12.7186 83.9816 12.1377 84.6474 12.4779 84.2785C13.1921 83.5016 13.9394 82.7616 14.7339 82.0656C16.3456 80.6534 18.0899 79.4041 19.8453 78.1784C21.6165 76.9428 23.406 75.7319 25.1084 74.4028C26.9862 72.9372 28.7128 71.3002 30.3177 69.5401C33.8494 65.6652 36.9273 61.3937 40.0951 57.2237C43.2628 53.0537 46.6112 48.645 49.8686 44.3561C53.1259 40.0672 56.3848 35.7775 59.6421 31.4885C61.2663 29.3502 62.9057 27.2229 64.5151 25.0722C65.4436 23.832 66.217 22.4366 66.3342 20.8611C66.4325 19.5426 66.0174 18.2065 65.2933 17.1154C63.8619 14.9585 61.6536 13.3191 59.5895 11.8026C57.5254 10.2861 55.4517 9.02078 53.227 7.90217C50.8516 6.7075 48.404 5.6674 45.8632 4.87784C43.6192 4.18013 41.0932 3.64335 38.7918 4.40132C36.2258 5.24691 34.5487 7.25429 33.3883 9.61847C32.1876 12.0649 31.062 14.5542 29.9309 17.033C29.1858 18.6668 29.2325 20.3739 30.3225 21.8397C31.0721 22.8476 32.3232 23.4635 33.3672 24.1167C35.6238 25.5286 37.8789 26.9413 40.1355 28.3532C41.2636 29.0597 42.3921 29.7651 43.519 30.4713C44.7044 31.2138 46.4798 30.9627 47.2296 29.6988C47.9794 28.4348 47.7306 26.7803 46.4612 25.9844C44.3046 24.6347 42.148 23.2851 39.9918 21.9343C38.9304 21.2693 37.8686 20.6054 36.8071 19.9404C36.3097 19.6286 35.812 19.318 35.3146 19.0063C35.0888 18.8647 34.8582 18.7265 34.6372 18.5777C34.6547 18.5896 34.3733 18.3799 34.3631 18.3842C34.356 18.3869 34.8394 18.7731 34.4662 18.4487C34.2558 18.267 34.6457 18.757 34.6795 18.8618C34.7067 18.9445 34.7288 19.5941 34.7521 19.281C34.7795 18.9241 34.5706 19.7862 34.7203 19.4536C34.77 19.3419 34.7989 19.2172 34.8449 19.1017C35.0742 18.5255 35.3602 17.9676 35.6213 17.4054C36.145 16.2765 36.6683 15.1488 37.192 14.0199C37.4277 13.5134 37.6656 13.0076 37.8983 12.4989C38.0546 12.1572 37.6601 12.982 37.8293 12.6432C37.8854 12.5311 37.9389 12.4193 37.9951 12.3071C38.1221 12.0562 38.2526 11.8064 38.3926 11.5622C38.638 11.1302 38.9127 10.724 39.2055 10.3235C39.4983 9.92311 38.821 10.7095 39.289 10.2352C39.3579 10.1647 39.8004 9.67224 39.8952 9.70026C39.8726 9.69296 39.4209 9.98085 39.7797 9.78706C39.8872 9.729 39.9909 9.66721 40.1007 9.61365C40.1779 9.57588 40.3773 9.51987 40.4265 9.46808C40.3687 9.52712 39.8406 9.62507 40.2829 9.53331C40.5121 9.48564 40.7383 9.43198 40.9698 9.39258C41.0439 9.38011 41.3544 9.3361 40.975 9.388C40.5501 9.44528 41.0625 9.39612 41.16 9.39622C41.3464 9.39613 42.5185 9.3641 42.5954 9.52537C42.5969 9.52837 41.9068 9.37624 42.4268 9.50115C42.5453 9.5293 42.6649 9.55404 42.7834 9.58219C43.0495 9.64534 43.3141 9.71679 43.5776 9.79165C44.6726 10.1042 45.7519 10.4769 46.8157 10.8822C47.3293 11.0777 47.8384 11.283 48.3443 11.4985C48.6138 11.6129 48.8823 11.7307 49.15 11.8507C49.2832 11.9111 49.4174 11.9719 49.5505 12.0323C49.6201 12.0648 50.1807 12.3317 49.8228 12.1576C49.4896 11.9964 49.9133 12.203 49.9931 12.2425C50.1248 12.3074 50.2549 12.3732 50.3862 12.4392C50.6477 12.5711 50.908 12.7063 51.1665 12.8434C51.7164 13.1357 52.2604 13.4387 52.7977 13.7545C53.8088 14.347 54.7965 14.9807 55.7575 15.6509C56.7184 16.3212 57.653 17.0305 58.5586 17.7756C58.6881 17.8824 59.3285 18.4218 58.8714 18.0316C59.0821 18.2122 59.2894 18.3955 59.4942 18.5829C59.8403 18.8985 60.1774 19.2263 60.4832 19.5816C60.5586 19.6697 60.6292 19.7651 60.7061 19.8525C60.9844 20.1651 60.554 19.7422 60.6234 19.7094C60.6541 19.6955 60.9264 20.2441 60.9567 20.3014C61.1408 20.6501 60.8134 20.2065 60.9064 20.1237C60.9027 20.1275 60.9963 20.4695 60.9901 20.4462C61.0131 20.53 61.0279 20.8141 61.0046 20.4321C60.9737 19.9186 61.0211 20.6102 60.981 20.6374C61.0304 20.6045 61.1269 20.1534 60.9911 20.548C60.9816 20.5775 60.905 20.9085 60.853 20.9456C61.0497 20.8048 61.0585 20.591 60.8839 20.8729C60.8083 20.9951 60.7399 21.1221 60.6616 21.2447C60.3246 21.7787 59.928 22.2759 59.5462 22.778C58.0131 24.7966 56.48 26.8153 54.9472 28.8329C51.8572 32.9014 48.7671 36.9699 45.6759 41.038C42.5847 45.1062 39.4958 49.1751 36.4046 53.2432C34.8674 55.2669 33.3321 57.2924 31.793 59.3141C31.0884 60.2395 30.3794 61.1634 29.6578 62.0758C29.3201 62.503 28.9779 62.9289 28.6333 63.3502C28.4495 63.5753 28.2638 63.7985 28.0781 64.0218C27.9847 64.1332 27.8912 64.2447 27.7982 64.355C27.6228 64.5615 27.5247 64.6953 27.7565 64.4067C25.007 67.8334 21.4979 70.547 17.9185 73.0401C14.4405 75.4632 10.9843 77.8457 8.20625 81.0891C7.55698 81.8469 6.95887 82.64 6.42451 83.4836L11.3409 85.0671C12.3558 79.3032 13.371 73.5381 14.3858 67.7741C14.4932 67.1612 14.0971 66.3097 13.7058 65.8705C13.2627 65.3746 12.5009 64.9789 11.824 64.9801C11.147 64.9812 10.4237 65.1729 9.92206 65.6626C9.36931 66.2022 9.16383 66.7936 9.03109 67.5474L9.03145 67.5463Z" fill="#010101"/>
<path d="M26.9159 22.3004C24.081 31.1717 20.8723 39.9226 17.2912 48.521C16.3081 50.8822 15.2963 53.2316 14.2583 55.5688C13.6876 56.8554 14.6913 58.589 15.9854 58.9432C17.5094 59.3601 18.7456 58.5897 19.3572 57.2111C23.0781 48.8268 26.4531 40.2898 29.4575 31.6221C30.3412 29.0724 31.1933 26.5125 32.0136 23.9423C32.4404 22.6056 31.6856 20.9497 30.2865 20.5679C28.8874 20.1862 27.3722 20.868 26.9147 22.3L26.9159 22.3004Z" fill="#010101"/>
<path d="M12.8726 69.5047C13.0175 69.5013 13.1613 69.5013 13.3067 69.5118C13.3934 69.5184 13.8098 69.5536 13.382 69.511C12.9543 69.4684 13.4235 69.5569 13.5307 69.5814C13.9986 69.6933 13.1745 69.3515 13.4367 69.5199C13.5341 69.5825 13.6374 69.6346 13.734 69.6995C14.1157 69.9552 13.7667 69.8078 13.6839 69.622C13.7178 69.6993 13.8635 69.8101 13.9266 69.8705C14.3344 70.2662 13.6485 69.3827 13.945 69.8677C14.6772 71.0617 16.226 71.7822 17.5505 71.029C18.7341 70.3556 19.4954 68.6945 18.7134 67.4181C17.516 65.4631 15.4604 64.0871 13.104 64.1423C11.7063 64.1755 10.31 65.195 10.3122 66.7099C10.3132 68.0855 11.3736 69.538 12.8744 69.5028L12.8726 69.5047Z" fill="#010101"/>
<path d="M15.3782 92.5709C21.4905 94.2741 28.1035 94.3136 34.1969 92.4762C37.621 91.4436 41.439 89.0599 40.848 84.9267C40.3391 81.3661 36.3842 79.9733 33.2507 80.5735C30.3039 81.1373 27.7613 83.5373 26.485 86.176C25.0853 89.0693 24.7674 92.3161 25.6609 95.4207C26.4921 98.3073 28.0934 101.098 30.3497 103.104C32.8316 105.312 36.2496 106.903 39.606 105.833C40.508 105.545 41.3242 105.154 42.1113 104.632C42.5707 104.328 43.021 104.009 43.4677 103.686C43.6255 103.573 43.7814 103.458 43.9392 103.344C44.0435 103.269 44.149 103.194 44.2552 103.121C43.9814 103.307 43.9261 103.346 44.0888 103.237C44.4391 103.023 44.7823 102.808 45.1563 102.633C45.2096 102.608 45.4951 102.505 45.5043 102.481C45.1541 102.601 45.117 102.615 45.3933 102.526C45.5123 102.491 45.6324 102.459 45.7538 102.432C45.8049 102.421 46.3885 102.271 45.9509 102.379C45.4442 102.504 46.3403 102.304 46.3243 102.404L45.9697 102.333C46.0867 102.358 46.2026 102.39 46.3151 102.429C46.8193 102.549 45.8526 102.137 46.3259 102.446C46.8363 102.78 45.9683 101.999 46.3667 102.463C46.4878 102.603 46.6104 102.747 46.7352 102.884C47.1595 103.348 46.4575 102.395 46.7824 102.939C46.8961 103.129 47.0143 103.318 47.125 103.51C47.6048 104.342 48.0712 105.181 48.5435 106.017C49.5124 107.731 50.4816 109.443 51.4504 111.157C52.0404 112.199 53.2151 112.815 54.4117 112.551C55.8157 112.242 57.0211 111.408 57.8125 110.209C58.604 109.01 58.2851 107.231 57.0442 106.494C55.7929 105.751 54.1611 106.014 53.3336 107.267C53.0947 107.628 53.4631 107.187 53.4565 107.169C53.4713 107.216 52.929 107.595 53.3225 107.321C53.637 107.102 53.2813 107.313 53.2144 107.354C52.955 107.515 53.7987 107.194 53.2576 107.313L56.2189 108.707C54.7026 106.026 53.2644 103.277 51.6515 100.651C50.7341 99.1578 49.5458 97.7606 47.7888 97.2673C46.066 96.7838 44.3106 97.1127 42.7135 97.8583C41.9893 98.1962 41.3346 98.6641 40.682 99.1215C40.4173 99.3068 40.1567 99.4984 39.8946 99.687C39.7903 99.7624 39.6848 99.8374 39.579 99.9135C39.0948 100.264 39.9732 99.676 39.5072 99.9618C39.2344 100.129 38.9679 100.3 38.6828 100.448C38.5704 100.505 38.4512 100.553 38.3403 100.614C37.7973 100.91 38.8743 100.506 38.2691 100.649C38.005 100.712 37.7424 100.766 37.4759 100.817C37.1058 100.887 38.1348 100.817 37.5503 100.799C37.3733 100.794 37.1994 100.794 37.0215 100.779C36.884 100.768 36.4777 100.608 36.8501 100.772C37.2577 100.951 36.7742 100.747 36.6832 100.723C36.3929 100.646 36.1089 100.549 35.831 100.437C35.7214 100.393 35.6086 100.328 35.4964 100.292C36.1162 100.492 35.765 100.417 35.5708 100.31C35.2728 100.144 34.9838 99.9615 34.7044 99.765C34.4667 99.5983 34.1542 99.4075 33.9616 99.1901C34.3625 99.6424 34.1758 99.3793 34.0651 99.2686C33.9328 99.1358 33.7934 99.0095 33.663 98.8748C33.2336 98.4334 32.8412 97.9588 32.4772 97.462C32.4467 97.4209 32.1296 96.918 32.3539 97.2933C32.5782 97.6687 32.269 97.1532 32.2453 97.1143C32.0827 96.854 31.9277 96.5899 31.7808 96.3197C31.649 96.0768 31.5242 95.8312 31.4069 95.5818C31.2793 95.3102 31.1939 94.8919 31.0116 94.6541C31.3038 95.0363 31.1193 94.9681 31.0297 94.695C30.9824 94.5508 30.9369 94.4046 30.8952 94.2584C30.8118 93.966 30.7378 93.6716 30.6762 93.3737C30.6208 93.1067 30.5749 92.8376 30.5384 92.5666C30.51 92.3558 30.568 92.0088 30.5318 92.6259C30.5418 92.4512 30.5087 92.2552 30.5051 92.0799C30.498 91.7758 30.5025 91.4704 30.5226 91.1675C30.5312 91.0438 30.6665 90.3246 30.6214 90.29C30.6494 90.3116 30.4672 90.9706 30.5927 90.4762C30.6289 90.3325 30.6591 90.1882 30.6977 90.0453C30.7816 89.7304 30.8825 89.421 30.9966 89.1171C31.0488 88.9786 31.1118 88.8448 31.164 88.7063C31.3042 88.3369 30.8341 89.3265 31.1189 88.7957C31.2576 88.5361 31.4004 88.279 31.5591 88.0307C31.7019 87.8087 31.8538 87.5934 32.0152 87.3836C32.1565 87.2011 32.4216 87.0498 31.9536 87.4389C32.0817 87.3323 32.1958 87.1762 32.3148 87.0592C32.5218 86.8553 32.7394 86.6612 32.9673 86.4816C32.9524 86.493 33.2299 86.2643 33.245 86.2717L32.9671 86.4627C33.0652 86.3991 33.1636 86.3381 33.2639 86.279C33.4908 86.1454 33.7265 86.031 33.9645 85.9173C34.2935 85.7615 34.2331 85.9762 33.8162 85.9584C33.9235 85.9629 34.1454 85.8641 34.2529 85.8411C34.3716 85.8142 34.5124 85.8119 34.6276 85.7726C34.9504 85.6637 33.9428 85.7825 34.4681 85.7826C34.7233 85.7822 34.9735 85.7938 35.2277 85.8043C35.4624 85.8135 35.5339 85.9643 34.9643 85.7446C35.0743 85.7875 35.2069 85.7989 35.3214 85.832C35.4358 85.8651 35.5484 85.9114 35.6632 85.9471C36.1311 86.0941 35.1316 85.6018 35.521 85.8838C35.606 85.9462 35.7111 86.0277 35.8042 86.0764C36.0849 86.222 35.3308 85.5658 35.6274 85.9418C35.8839 86.2675 35.4904 85.7148 35.485 85.6968C35.5002 85.7581 35.6312 86.0195 35.6752 86.0612C35.6665 86.0534 35.4294 85.4034 35.5702 85.8245C35.7435 86.3425 35.6164 85.4285 35.5674 85.7321L35.5656 85.8155C35.5345 86.1098 35.5511 86.035 35.6161 85.5925C35.5954 85.6723 35.5706 85.7494 35.5412 85.8251C35.4663 86.0227 35.5132 85.9314 35.682 85.5511C35.6204 85.5751 35.5048 85.841 35.4584 85.9074C35.2236 86.2364 35.2198 85.9609 35.5226 85.848C35.3477 85.9131 35.0462 86.2669 34.91 86.3909C34.6241 86.6495 35.4651 86.0612 34.9343 86.3774C34.8246 86.4423 34.718 86.5094 34.6064 86.5724C34.272 86.7603 33.9271 86.9109 33.5777 87.0677C33.1308 87.2669 33.6555 87.059 33.7012 87.0298C33.5287 87.1421 33.2391 87.1791 33.0413 87.2381C32.6828 87.3456 32.3223 87.4474 31.9603 87.5425C31.2362 87.7326 30.5047 87.8953 29.7692 88.0316C29.0337 88.168 28.2246 88.2881 27.4472 88.3721C27.2787 88.3905 27.1095 88.4112 26.9394 88.4228C27.6268 88.3736 26.9217 88.4196 26.8171 88.4259C26.4095 88.4525 26.002 88.4715 25.5943 88.483C24.0981 88.5234 22.5985 88.4575 21.1123 88.2844C20.7071 88.2378 20.3022 88.1825 19.8987 88.1189C19.8429 88.1097 19.5078 88.0394 19.4959 88.0531C19.8678 88.1215 19.9033 88.1279 19.6 88.0716L19.3997 88.0334C18.5989 87.8756 17.8056 87.6827 17.0195 87.4634C15.671 87.0879 14.0408 87.7577 13.6478 89.1955C13.2769 90.5527 13.9289 92.1667 15.3748 92.5698L15.3782 92.5709Z" fill="#010101"/>
</g>
<defs>
<clipPath id="clip0_394_270">
<rect width="59.6582" height="100.226" fill="white" transform="translate(30.7269) rotate(17.853)"/>
</clipPath>
</defs>
</svg>
