<svg width="84" height="97" viewBox="0 0 84 97" fill="none" xmlns="http://www.w3.org/2000/svg">
<g clip-path="url(#clip0_394_261)">
<path d="M50.9755 62.0481C49.0615 61.9736 47.0737 61.985 45.2178 62.5188C44.2909 62.7847 43.3733 63.1851 42.5958 63.7583C41.5994 64.4929 40.8977 65.3836 40.2189 66.4131C40.1005 66.5931 39.9749 66.7679 39.8535 66.9459C39.6698 67.2149 40.2458 66.559 39.867 66.9118C39.7912 66.9821 39.7144 67.0659 39.6428 67.1404C39.3926 67.4011 39.7455 67.0835 39.7455 67.0763C39.7435 67.1011 39.4757 67.247 39.4819 67.2439C39.4144 67.2832 39.2494 67.3401 39.2058 67.3877C39.5026 67.2697 39.568 67.2408 39.403 67.3028C39.3293 67.3308 39.2556 67.3556 39.1798 67.3794C38.9774 67.4435 38.7719 67.4932 38.5643 67.5356C38.4595 67.5573 38.3536 67.5739 38.2477 67.5925C37.8273 67.667 38.3339 67.5656 38.3878 67.5739C38.1979 67.5439 37.9363 67.6174 37.7433 67.6318C37.4755 67.6515 37.2066 67.667 36.9388 67.6815C35.9787 67.7353 35.0165 67.7746 34.0543 67.757C33.5882 67.7487 33.1221 67.726 32.6582 67.6846C32.5502 67.6753 32.4412 67.6629 32.3333 67.6525C32.0582 67.6256 32.216 67.7456 32.4713 67.6743C32.2876 67.726 31.861 67.5729 31.6783 67.5346C31.2642 67.4477 30.8531 67.338 30.4524 67.2004C30.3528 67.1663 30.2552 67.128 30.1556 67.0928C29.7663 66.9562 30.2345 67.1094 30.277 67.1466C30.0995 66.9914 29.7819 66.9097 29.5743 66.7907C29.3906 66.6852 29.2162 66.5652 29.0366 66.4524C28.6754 66.2237 29.0885 66.5165 29.1228 66.5289C29.0211 66.4917 28.9058 66.35 28.8238 66.2765C28.6692 66.1389 28.5208 65.9951 28.3786 65.8451C28.308 65.7706 28.2384 65.694 28.171 65.6175C28.0962 65.5326 27.871 65.1281 28.0132 65.4354C28.1471 65.7251 28.0277 65.4457 27.9685 65.3599C27.9094 65.274 27.8533 65.1902 27.7973 65.1033C27.6717 64.9077 27.5534 64.7081 27.4423 64.5042C27.3426 64.3221 27.2492 64.1359 27.16 63.9487C27.1184 63.8618 27.0821 63.7397 27.0302 63.6631L27.1423 63.93C27.1029 63.8328 27.0634 63.7345 27.0261 63.6362C26.7032 62.793 26.4645 61.9188 26.2735 61.0373C26.1843 60.6235 26.1054 60.2075 26.0337 59.7906C25.9922 59.5475 25.9528 59.3033 25.9154 59.0591C25.8988 58.9495 25.8822 58.8388 25.8656 58.7291C25.8178 58.4042 25.8178 58.5046 25.8687 58.7674C25.686 57.8145 25.6445 56.8078 25.5853 55.8405C25.468 53.9099 25.4867 51.9701 25.6725 50.0447C25.6964 49.7943 25.7234 49.545 25.7535 49.2956C25.7639 49.2087 25.8002 48.8414 25.7639 49.1901C25.7275 49.5387 25.767 49.1735 25.7794 49.0856C25.8521 48.591 25.9362 48.0986 26.0317 47.6082C26.2175 46.6605 26.451 45.7221 26.7333 44.7982C26.8621 44.3782 27.0011 43.9612 27.1517 43.5484C27.2357 43.3167 27.324 43.0859 27.4143 42.8563C27.4547 42.7549 27.4973 42.6535 27.5378 42.5511C27.6457 42.28 27.3478 42.9783 27.5284 42.578C27.9239 41.7027 28.3557 40.8471 28.8508 40.0225C29.0927 39.6211 29.346 39.2269 29.6127 38.842C29.7383 38.6599 29.8681 38.4799 29.9999 38.3019C30.0642 38.215 30.1286 38.1178 30.2002 38.0361C29.812 38.4809 30.2064 38.0361 30.2666 37.9616C30.8894 37.1991 31.5641 36.479 32.2803 35.8024C32.6384 35.464 33.0069 35.1361 33.3837 34.8184C33.5612 34.6684 33.7408 34.5215 33.9224 34.3767C34.0273 34.2929 34.3418 34.0259 33.9307 34.3653C34.0428 34.2732 34.1632 34.1894 34.2795 34.1035C35.0974 33.4993 35.9475 32.9386 36.8215 32.4192C37.6955 31.8998 38.6484 31.278 39.6158 30.9708C39.0968 31.1353 39.7704 30.9118 39.9147 30.857C40.1742 30.7587 40.4348 30.6676 40.6984 30.5818C41.2247 30.411 41.7603 30.2683 42.3031 30.1576C42.5325 30.111 42.7619 30.0748 42.9923 30.0355C43.338 29.9765 42.3872 30.0893 42.9207 30.0479C43.0256 30.0396 43.1304 30.0272 43.2342 30.0179C43.7034 29.9796 44.1757 29.9672 44.6459 29.9786C45.0642 29.9889 45.4783 30.0251 45.8946 30.0665C46.3108 30.1079 45.7897 30.0614 45.7389 30.0448C45.8302 30.0738 45.9506 30.0779 46.0482 30.0945C46.3056 30.1389 46.562 30.1896 46.8163 30.2476C47.2502 30.3469 47.6799 30.4648 48.1044 30.6004C48.3048 30.6645 48.503 30.7328 48.7013 30.8052C48.7999 30.8414 48.8985 30.8787 48.9971 30.917C49.0708 30.9449 49.1445 30.9739 49.2171 31.0039C48.9275 30.8797 48.8632 30.8528 49.0241 30.9221C49.8721 31.3029 50.6932 31.7281 51.4768 32.2299C51.836 32.4596 52.1837 32.7048 52.5273 32.9562C52.8709 33.2076 52.4712 32.9272 52.4349 32.8837C52.493 32.9541 52.6103 33.0234 52.684 33.0834C52.8906 33.2521 53.093 33.4248 53.2923 33.6028C53.968 34.2049 54.5981 34.8567 55.1762 35.553C55.2613 35.6554 55.3423 35.7589 55.4264 35.8624C55.6267 36.1065 55.169 35.5116 55.3527 35.7682C55.4804 35.9462 55.6122 36.121 55.7378 36.301C56.0512 36.7511 56.346 37.2146 56.6221 37.6874C56.8536 38.0847 57.0726 38.4902 57.2781 38.902C57.3809 39.1079 57.4805 39.3148 57.5771 39.5238C57.6248 39.6283 57.6715 39.7338 57.7193 39.8383C57.9643 40.3743 57.5345 39.3697 57.7535 39.917C58.4947 41.7741 59.0209 43.7005 59.3406 45.6735C59.3655 45.8245 59.514 46.645 59.3956 46.0045C59.4371 46.2322 59.4538 46.468 59.4787 46.6988C59.5347 47.2202 59.5783 47.7427 59.6105 48.2662C59.6707 49.2532 59.6873 50.2433 59.6645 51.2324C59.6541 51.7011 59.6364 52.1708 59.6043 52.6384C59.5877 52.8774 59.5679 53.1164 59.5441 53.3544C59.5337 53.4609 59.5202 53.5664 59.5088 53.673C59.459 54.1169 59.57 53.313 59.516 53.6099C59.4351 54.0548 59.3603 54.4986 59.2462 54.9373C59.1932 55.1411 59.1351 55.3428 59.0697 55.5425C59.0375 55.6418 59.0043 55.7412 58.968 55.8384C58.942 55.9119 58.914 55.9853 58.886 56.0578C58.8216 56.2212 58.8507 56.155 58.9732 55.8602C59.0043 55.9533 58.7521 56.3216 58.7012 56.4147C58.6037 56.5947 58.4988 56.7716 58.3857 56.9423C58.3909 56.9341 58.232 57.1938 58.2103 57.1948C58.23 57.1948 58.53 56.8275 58.2891 57.0862C58.1106 57.2776 57.9393 57.4669 57.7473 57.6448C56.8515 58.4777 56.8401 60.1062 57.7473 60.9369C58.7064 61.8143 60.0952 61.8257 61.0502 60.9369C64.3593 57.859 64.5171 52.7263 64.2949 48.5279C64.0562 43.9964 63.0089 39.4535 60.7409 35.4858C58.6587 31.8429 55.4523 28.7288 51.5983 26.9958C47.4245 25.1191 42.8128 24.7497 38.4989 26.4309C34.185 28.1122 30.2542 30.8187 27.297 34.267C24.4446 37.5932 22.542 41.6065 21.6265 45.8804C20.711 50.1543 20.6331 54.3724 21.1729 58.5977C21.7344 62.9875 22.7195 67.6329 26.5465 70.3756C28.4087 71.7102 30.7348 72.2006 32.982 72.361C35.0995 72.512 37.3094 72.4065 39.4071 72.0879C40.6725 71.8965 41.8558 71.374 42.8232 70.5339C43.2944 70.1242 43.6691 69.6038 44.0241 69.0937C44.1476 68.9168 44.2639 68.7347 44.3832 68.5547C44.4424 68.4647 44.5016 68.3736 44.5628 68.2847C44.623 68.1957 44.6853 68.1067 44.7486 68.0198L44.5794 68.234C44.6116 68.0912 44.9303 67.8408 45.0393 67.7384C45.0777 67.7022 45.3122 67.5356 45.3112 67.4994C45.3122 67.5356 44.8379 67.8263 45.1835 67.606C45.3652 67.4901 45.5448 67.3753 45.7357 67.2749C45.8209 67.2304 45.9081 67.1921 45.9932 67.1476C46.1873 67.0463 45.47 67.3432 45.9703 67.1621C46.3637 67.0194 46.7685 66.9118 47.1785 66.829C47.301 66.8042 47.4245 66.7824 47.5491 66.7628C47.9685 66.6945 47.6052 66.8724 47.4546 66.7721C47.5647 66.8445 48.0629 66.7141 48.2176 66.7038C49.1351 66.6448 50.0548 66.6645 50.9734 66.6997C52.1951 66.7473 53.3639 65.5947 53.3089 64.3718C53.2508 63.0703 52.2823 62.0947 50.9734 62.044L50.9755 62.0481Z" fill="#010101"/>
<path d="M60.4585 27.1852C61.4851 28.5953 62.4286 30.0624 63.2756 31.5864C63.6991 32.3478 64.0987 33.1227 64.4734 33.909C64.6613 34.3022 64.8419 34.6984 65.0173 35.0968C65.0671 35.2095 65.3038 35.7279 65.0765 35.2271C65.1792 35.4537 65.2664 35.6886 65.3578 35.9182C65.7927 37.0077 66.6843 37.7515 67.9206 37.586C69.1568 37.4205 69.8128 36.4697 69.9457 35.2995C69.9571 35.1919 69.9695 35.0854 69.9841 34.9778C69.9353 35.3285 69.9301 35.3751 69.9675 35.1154C70.0038 34.9023 70.036 34.6891 70.0754 34.477C70.145 34.1056 70.2249 33.7363 70.3152 33.37C70.5093 32.5837 70.7522 31.8098 71.0397 31.0525C71.1155 30.8539 71.1819 30.6387 71.2795 30.4504C70.9888 31.008 71.2525 30.5228 71.3034 30.4121C71.4819 30.0189 71.6739 29.631 71.8774 29.2492C72.2469 28.5581 72.6548 27.8877 73.1011 27.2431C73.2091 27.0879 73.3181 26.9338 73.4302 26.7806C73.4945 26.6937 73.5589 26.6068 73.6243 26.521C73.4229 26.7775 73.4011 26.8065 73.5579 26.6079C73.7976 26.3151 74.0374 26.0233 74.2896 25.7409C74.8294 25.1367 75.4065 24.5645 76.0168 24.0296C76.1798 23.8869 76.3448 23.7472 76.512 23.6106C76.5888 23.5475 77.032 23.1875 76.5597 23.5641C76.9272 23.2702 77.3174 23.0033 77.6953 22.724C78.5142 22.1177 79.3363 21.5031 80.0422 20.7655C81.4341 19.3108 80.4418 16.8092 78.3907 16.7916C73.2029 16.7481 67.9963 17.3741 62.9631 18.628C61.7778 18.9229 60.9505 20.3154 61.3325 21.4918C61.7144 22.6681 62.9351 23.4337 64.2056 23.1171C65.3983 22.8202 66.5992 22.5564 67.8085 22.3339C68.397 22.2253 68.9866 22.126 69.5772 22.0349C69.8709 21.9894 70.1688 21.9356 70.4647 21.9056C69.9488 21.9563 70.4273 21.9118 70.5352 21.8984C70.7003 21.8777 70.8653 21.858 71.0304 21.8384C73.4738 21.5528 75.9317 21.4266 78.3918 21.4473L76.7403 17.4734C76.4154 17.8127 76.0698 18.1272 75.7054 18.4231C75.6141 18.4966 75.5228 18.5701 75.4293 18.6425C75.6691 18.4583 75.6868 18.4428 75.4802 18.599C75.2892 18.7377 75.1013 18.8784 74.9114 19.018C74.1173 19.6005 73.3285 20.1913 72.5925 20.8462C71.2141 22.0732 70.0131 23.5051 68.9772 25.028C66.8909 28.0967 65.691 31.6329 65.2747 35.2995C66.8037 35.0937 68.3326 34.8867 69.8626 34.6809C68.4665 31.188 66.7103 27.8804 64.4921 24.8346C63.7759 23.8517 62.4296 23.2713 61.2972 23.9996C60.3204 24.6276 59.6914 26.1309 60.4595 27.1841L60.4585 27.1852Z" fill="#010101"/>
<path d="M39.9812 23.3509C40.959 23.0261 41.9533 22.756 42.9623 22.5491C43.4356 22.4529 43.912 22.3784 44.3885 22.3008C44.7393 22.2439 43.9888 22.3432 44.3417 22.307C44.4383 22.2977 44.5338 22.2843 44.6293 22.2739C44.9168 22.2418 45.2053 22.216 45.4949 22.1943C46.5226 22.1167 47.5533 22.1011 48.583 22.1498C49.0656 22.1725 49.5472 22.2087 50.0268 22.2584C50.1794 22.2739 50.9226 22.3598 50.3641 22.2946C50.7015 22.3339 51.0181 22.4012 51.3544 22.3794C52.4712 22.306 53.586 21.5818 53.8487 20.4344C54.0251 19.6626 53.8445 18.9756 53.6089 18.2493C53.2964 17.2871 53.0089 16.3167 52.7474 15.34C52.2159 13.3546 51.7893 11.3403 51.4717 9.31037C51.426 9.02068 51.3866 8.72893 51.3419 8.43924C51.2879 8.08541 51.3907 8.83135 51.3461 8.47648C51.3253 8.31509 51.3045 8.15265 51.2848 7.99126C51.2132 7.40878 51.1509 6.82423 51.098 6.23968C50.9911 5.06954 50.9215 3.89734 50.8842 2.72307C50.853 1.73606 50.1846 0.708703 49.1694 0.477987C48.1543 0.247271 47.0706 0.629039 46.5319 1.54776C43.9971 5.86826 41.6596 10.3015 39.5245 14.832C39.0065 15.9318 39.1788 17.3937 40.3621 18.0165C41.398 18.5618 43.0027 18.358 43.557 17.1816C45.6911 12.6511 48.0297 8.21887 50.5645 3.89734C49.1134 3.50523 47.6633 3.11415 46.2122 2.72204C46.3098 5.79894 46.6471 8.86963 47.1941 11.8989C47.4495 13.3112 47.7578 14.7151 48.1169 16.1046C48.2965 16.7998 48.4895 17.491 48.6951 18.179C48.8072 18.5545 48.9234 18.928 49.0428 19.3015C49.103 19.4877 49.1653 19.674 49.2255 19.8602L49.2877 20.0454C49.3573 20.2916 49.3479 20.2161 49.2597 19.8167L49.5784 18.6414L49.8078 18.3631L50.8385 17.7641C50.8987 17.7403 51.4395 17.762 51.1063 17.7372L51.4125 17.7796L50.7918 17.6968C50.5364 17.6627 50.2811 17.6317 50.0247 17.6048C49.513 17.551 48.9992 17.5127 48.4843 17.491C47.4235 17.4454 46.3585 17.4672 45.3008 17.5551C43.0692 17.7403 40.8624 18.1562 38.7366 18.8628C37.5803 19.2467 36.7032 20.4861 37.106 21.7266C37.4786 22.875 38.7377 23.7648 39.9791 23.352L39.9812 23.3509Z" fill="#010101"/>
<path d="M27.0115 19.1132C26.7458 19.016 26.4811 18.9166 26.2185 18.8121C26.122 18.7728 26.0068 18.7025 25.904 18.6838C26.1583 18.7294 26.2092 18.8142 25.9165 18.6838C25.4514 18.4769 24.9927 18.2566 24.5411 18.0217C23.5883 17.5261 22.6676 16.9706 21.7853 16.3581C21.5766 16.2132 21.3701 16.0653 21.1656 15.9142C21.1262 15.8853 20.9372 15.7032 20.8947 15.7104C21.121 15.8853 21.1666 15.9204 21.0327 15.8149C20.9881 15.7797 20.9435 15.7445 20.8999 15.7094C20.4805 15.3742 20.0716 15.0265 19.6751 14.6655C18.881 13.9423 18.1378 13.1684 17.4413 12.3521C16.8019 11.602 15.4266 11.4644 14.6107 11.9879C13.6599 12.5983 13.3838 13.5429 13.5374 14.6168C13.9589 17.5603 14.3813 20.5037 14.8027 23.4471C15.2242 26.3906 15.5127 29.1385 16.3701 31.8688C16.86 33.4279 19.072 34.2856 20.274 32.8962C22.708 30.082 25.3373 27.4438 28.144 24.9991C29.0667 24.1952 29.0304 22.5181 28.144 21.707C27.16 20.8068 25.8262 20.8493 24.8411 21.707C22.0344 24.1517 19.4052 26.7899 16.9711 29.6041L20.875 30.6314C20.0176 27.9011 19.7114 25.0322 19.3076 22.2098C18.9038 19.3874 18.4637 16.3229 18.0423 13.3795C16.7407 14.1347 15.4401 14.8889 14.1384 15.6442C17.2347 19.2756 21.2912 21.9708 25.7691 23.6023C26.9181 24.0214 28.3775 23.1337 28.6422 21.977C28.9422 20.663 28.2415 19.5622 27.0115 19.1132Z" fill="#010101"/>
<path d="M17.4361 37.3212C16.9566 37.4298 16.4749 37.527 15.9902 37.6088C15.7317 37.6533 15.4733 37.6895 15.2148 37.7298C14.9408 37.7722 15.3248 37.7174 15.3498 37.7122C15.1619 37.7505 14.9553 37.7609 14.7654 37.7815C13.7554 37.8933 12.7403 37.9636 11.7251 38.0154C9.65433 38.1209 7.58044 38.1468 5.5107 38.2844C4.39694 38.3578 3.20741 38.3971 2.11752 38.6444C0.098641 39.1038 -0.495086 41.3944 0.417303 43.0528C0.919688 43.9674 1.64835 44.8044 2.25557 45.6528C2.8628 46.5012 3.4887 47.3733 4.10526 48.2341C5.51796 50.204 6.93066 52.1749 8.34232 54.1448C9.21527 55.3625 10.8532 55.735 12.0106 54.6155C15.0207 51.7062 16.203 47.4064 17.6479 43.6074C18.0817 42.4662 17.1673 41.0054 16.0172 40.7436C14.6865 40.4415 13.6091 41.1481 13.144 42.369C12.7859 43.3094 12.4289 44.2499 12.0708 45.1903C11.9016 45.6362 11.7324 46.0821 11.559 46.526C11.475 46.7402 11.3909 46.9533 11.3037 47.1654C11.2601 47.2719 11.2165 47.3775 11.1719 47.484C11.285 47.2192 11.3068 47.1654 11.2383 47.3237C10.8843 48.1038 10.5231 48.8756 10.0747 49.6081C9.97196 49.7767 9.86505 49.9433 9.75398 50.1078C9.68547 50.2092 9.27443 50.8517 9.62008 50.3188C9.38031 50.6882 9.02116 51.0172 8.70665 51.3214C9.9294 51.4786 11.1521 51.6359 12.3749 51.7921C11.0027 49.8771 9.62942 47.962 8.25721 46.048C7.58044 45.1044 6.90471 44.1609 6.22794 43.2173C5.88956 42.7456 5.55118 42.2738 5.21383 41.802C5.05502 41.5796 4.89413 41.3582 4.73636 41.1357C4.65643 41.023 4.57859 40.8781 4.48932 40.7705C4.42704 40.6577 4.43327 40.6784 4.508 40.8326C4.7239 41.2588 4.69795 41.7223 4.43119 42.2241L3.59354 43.059C3.87068 42.847 3.38594 43.0984 3.29252 43.1335C2.95725 43.2577 3.44614 43.118 3.54579 43.1077C3.87276 43.0725 4.19972 43.0404 4.52669 43.0125C5.18166 42.9566 5.8387 42.9152 6.49471 42.8811C7.80983 42.8128 9.12704 42.7776 10.4422 42.7269C13.2022 42.6193 15.9767 42.4186 18.6775 41.8082C19.8702 41.5382 20.685 40.1032 20.3082 38.9444C19.9034 37.6988 18.7128 37.0294 17.4351 37.3191L17.4361 37.3212Z" fill="#010101"/>
<path d="M8.3817 67.0845C10.522 70.8391 13.5561 74.0329 17.1506 76.4352C18.0101 77.0094 18.9048 77.5309 19.8286 77.9944C20.0227 78.0916 20.2189 78.1868 20.4161 78.2789C20.5147 78.3254 20.6154 78.3679 20.713 78.4155L20.8303 78.4703C20.9922 78.5665 20.987 78.551 20.8147 78.4258L20.6829 78.3192C19.9936 77.025 20.0767 76.1073 20.932 75.5651C20.904 75.5631 20.7119 75.6893 20.7036 75.6934C20.4244 75.8434 20.139 75.981 19.8587 76.129C17.7869 77.2257 15.7991 78.4806 13.9204 79.8805C11.6368 81.5813 9.43422 83.335 8.42011 86.0881H12.9239C12.8004 85.5532 12.9032 86.4553 12.8907 85.9546C12.8855 85.7632 12.8793 85.5759 12.8897 85.3845C12.8938 85.2893 12.9021 85.1942 12.9125 85.099C12.9312 84.9241 12.9239 84.9717 12.8917 85.2407C12.8689 85.1073 12.9737 84.8 13.0018 84.6686C13.1585 83.9382 13.362 83.2201 13.5177 82.4897C13.8654 80.8602 14.0906 79.1945 14.1923 77.5319C14.3885 74.3484 14.0616 71.1184 13.3059 68.0219C13.0173 66.8383 11.6078 66.0168 10.4328 66.3965C9.19859 66.7948 8.49173 67.9919 8.80208 69.2603C8.98685 70.0176 9.14566 70.7801 9.27229 71.5499C9.30343 71.7413 9.34599 71.9347 9.36156 72.1272C9.32834 71.7102 9.35429 72.0713 9.37817 72.2813C9.41968 72.6362 9.45394 72.9921 9.483 73.348C9.60445 74.8689 9.6086 76.4001 9.49546 77.922C9.46639 78.311 9.43006 78.6989 9.38543 79.0859C9.37817 79.1511 9.30966 79.6932 9.35429 79.3559C9.39893 79.0186 9.30862 79.6528 9.29824 79.7211C9.18199 80.4588 9.03667 81.1923 8.86436 81.9186C8.43464 83.7261 7.99245 85.4704 8.42114 87.3275C8.6412 88.2814 9.68645 89.0801 10.6736 89.0367C11.7655 88.988 12.5554 88.3331 12.926 87.3275C13.1139 86.8175 12.7423 87.6555 12.9104 87.3534C12.9758 87.2344 13.0319 87.1102 13.0983 86.9913C13.2197 86.7771 13.363 86.5795 13.4969 86.3746C13.6827 86.0901 13.1222 86.7906 13.4865 86.3933C13.5612 86.3126 13.6298 86.2267 13.7045 86.145C13.8903 85.9401 14.0854 85.7425 14.2868 85.5521C14.6698 85.189 15.0736 84.8486 15.4857 84.5186C15.5874 84.4368 16.2382 83.9144 15.8261 84.2454C16.097 84.0271 16.3825 83.8254 16.6638 83.6205C18.609 82.2031 20.6663 80.9389 22.8107 79.8442C23.4688 79.508 24.1321 79.0745 24.4819 78.3958C25.0528 77.2888 24.9095 75.9821 24.0304 75.0747C23.5778 74.6081 23.0484 74.3929 22.4838 74.1188C21.9938 73.8818 21.5122 73.6273 21.0399 73.3583C20.139 72.8452 19.2857 72.2679 18.447 71.6616C18.3401 71.584 18.144 71.3802 18.5301 71.7288C18.4512 71.6574 18.3578 71.5943 18.2737 71.5271C18.0609 71.3574 17.8512 71.1846 17.6436 71.0088C17.2295 70.656 16.8267 70.2907 16.4354 69.9131C16.0254 69.5158 15.6279 69.1051 15.2459 68.6819C14.8639 68.2588 14.429 67.8429 14.1425 67.3732C14.4269 67.8387 14.2525 67.5149 14.1602 67.3918C14.0626 67.2614 13.9661 67.13 13.8706 66.9976C13.6962 66.7555 13.526 66.5093 13.3599 66.261C13.0277 65.7633 12.7163 65.2533 12.4205 64.7339C11.8164 63.6745 10.276 63.2234 9.22558 63.899C8.17514 64.5746 7.74126 65.9506 8.38793 67.0835L8.3817 67.0845Z" fill="#010101"/>
<path d="M36.7581 80.1598C38.2705 80.5633 39.7807 80.2716 41.2204 79.747C42.5283 79.2711 43.8309 78.7807 45.1367 78.2975C47.7286 77.3385 50.3194 76.3783 52.9112 75.4193C52.0321 74.2791 51.1529 73.14 50.2737 71.9999C48.2798 75.4348 47.14 79.1583 46.6335 83.0784C46.1374 86.9178 46.0792 90.8245 45.8747 94.6877L49.8616 93.0416C49.7205 92.9185 49.5845 92.7913 49.4558 92.6547C49.4008 92.5967 49.3478 92.5378 49.2959 92.4767C49.1361 92.2822 49.16 92.3133 49.3665 92.5709C49.187 92.5171 48.9534 91.9284 48.8558 91.7535C48.5154 91.1369 48.2382 90.4872 47.9424 89.8478C47.3061 88.4708 46.5795 87.1361 45.7658 85.8553C44.0666 83.1798 42.0207 80.703 39.6935 78.5469C38.7988 77.7171 37.2657 77.5971 36.3907 78.5469C35.5156 79.4966 35.4347 80.9534 36.3907 81.839C37.5044 82.8715 38.5528 83.9713 39.5233 85.1404C39.6354 85.2749 39.7465 85.4104 39.8555 85.547C39.8949 85.5956 40.3111 86.1346 40.1056 85.8615C39.9001 85.5884 40.3091 86.1346 40.3454 86.1843C40.4492 86.325 40.553 86.4667 40.6547 86.6085C41.0969 87.2251 41.5183 87.8562 41.9179 88.5008C42.7141 89.7837 43.4168 91.1183 44.0427 92.4912C44.6686 93.8641 45.3724 95.3002 46.5567 96.3337C47.2771 96.9628 48.1988 97.1976 49.1081 96.8148C50.0173 96.432 50.4938 95.6323 50.5436 94.6877C50.7408 90.9548 50.8062 87.1847 51.2525 83.4705C51.264 83.3722 51.2764 83.274 51.2889 83.1767C51.2484 83.4695 51.2474 83.4798 51.2858 83.2088C51.3159 83.0132 51.3439 82.8177 51.3761 82.6232C51.4508 82.168 51.5359 81.7148 51.6335 81.2637C51.8172 80.4102 52.0466 79.566 52.3175 78.7362C52.4535 78.3213 52.5998 77.9096 52.7566 77.5019C52.8241 77.3271 52.8946 77.1543 52.9642 76.9805C53.0649 76.7374 53.0597 76.7498 52.9476 77.0198C52.9974 76.905 53.0483 76.7912 53.1002 76.6774C53.4614 75.8817 53.8662 75.1068 54.3053 74.3505C54.7786 73.5353 54.6935 72.5017 54.1226 71.7651C53.5922 71.0812 52.5365 70.6094 51.6677 70.9312C49.2046 71.8437 46.7404 72.7552 44.2773 73.6677C43.0618 74.1177 41.8463 74.5678 40.6298 75.0179C40.0631 75.2279 39.4974 75.4514 38.913 75.6065C38.7645 75.6459 38.6088 75.6686 38.4615 75.711C38.1677 75.7948 38.995 75.7069 38.449 75.709C38.421 75.709 38.0888 75.7172 38.0888 75.709C38.3815 75.7617 38.4397 75.771 38.2632 75.7369C38.1739 75.7214 38.0847 75.6997 37.9975 75.6717C36.8183 75.3572 35.4056 76.0659 35.1243 77.2971C34.843 78.5283 35.4928 79.8236 36.755 80.1608L36.7581 80.1598Z" fill="#010101"/>
<path d="M68.1219 51.0824C68.2859 52.6446 68.3585 54.2151 68.3274 55.7857C68.3118 56.602 68.2693 57.4183 68.1997 58.2314C68.1676 58.607 68.1302 58.9826 68.0866 59.3561C68.0648 59.5423 68.0482 59.7316 68.0181 59.9168C68.1157 59.3167 68.0015 60.0151 67.9818 60.1372C67.7441 61.6901 67.4088 63.2275 66.9791 64.738C66.7642 65.4933 66.5255 66.2424 66.2639 66.9821C66.1383 67.338 66.0065 67.6908 65.8705 68.0426C65.802 68.2184 65.7324 68.3933 65.6619 68.5681C65.6141 68.685 65.5664 68.8009 65.5186 68.9168C65.6318 68.6499 65.6359 68.6385 65.5321 68.8806C65.1294 69.8107 65.0754 70.9488 65.8975 71.7019C66.6085 72.3527 67.878 72.6869 68.7281 72.0661C69.7432 71.3243 70.7615 70.5825 71.8275 69.9131C72.332 69.5965 72.8478 69.2955 73.3772 69.0213C73.6409 68.8847 73.9097 68.7595 74.1775 68.6323C74.7183 68.3757 73.7135 68.8009 74.274 68.5899C74.4121 68.5371 74.5501 68.4833 74.6903 68.4336C75.2611 68.2298 75.8445 68.0705 76.4382 67.9505C76.7766 67.8832 77.116 67.8294 77.4565 67.7767C77.9153 67.7063 77.1918 67.8077 77.4887 67.7715C77.6444 67.7529 77.8001 67.7322 77.9558 67.7125C79.4006 67.5315 80.8611 67.3773 82.2478 66.9097C83.5567 66.4689 84.5688 64.7898 83.6439 63.4903C80.4168 58.9577 77.1897 54.4251 73.9616 49.8926C73.2558 48.9014 71.8908 48.3345 70.7667 49.0576C69.7806 49.6919 69.1723 51.1806 69.929 52.2421C73.1561 56.7747 76.3832 61.3073 79.6113 65.8399C80.0764 64.6998 80.5414 63.5607 81.0074 62.4205C80.3556 62.6399 79.6892 62.794 79.0114 62.9078C78.8578 62.9337 78.7031 62.9575 78.5484 62.9803C78.4301 62.9978 77.9724 63.0796 78.5173 62.9865C78.209 63.0392 77.8935 63.0641 77.5831 63.1044C76.1206 63.2917 74.6716 63.4883 73.2827 64.0056C70.7376 64.9522 68.5475 66.4544 66.3718 68.0446C67.4368 69.1061 68.5018 70.1676 69.5668 71.2291C72.3133 64.8932 73.5204 57.9635 72.7949 51.0793C72.7285 50.445 72.579 49.8998 72.1109 49.4332C71.706 49.0297 71.0407 48.7255 70.4594 48.7514C69.3031 48.8031 67.9869 49.7819 68.124 51.0793L68.1219 51.0824Z" fill="#010101"/>
</g>
<defs>
<clipPath id="clip0_394_261">
<rect width="84" height="97" fill="white"/>
</clipPath>
</defs>
</svg>
