<svg width="944" height="198" viewBox="0 0 944 198" fill="none" xmlns="http://www.w3.org/2000/svg">
<g clip-path="url(#clip0_394_121)">
<path d="M104.3 70.18C105.38 63.82 106.3 57.06 103.92 50.87C101.54 44.68 96.4201 41.35 90.4201 39.11C78.0201 34.48 65.2301 31.59 51.9201 32.56C38.4801 33.54 25.7101 36.36 16.9101 47.39C8.11012 58.42 -0.539879 72.58 0.0301211 86.8C0.280121 93.04 2.46012 99.46 7.50012 103.43C13.6401 108.26 21.4201 107 28.5401 105.68C44.8601 102.66 61.0701 96.41 77.9201 98.15C92.9901 99.71 106.22 109.65 105.88 125.71C105.6 138.79 105.38 159.37 89.9401 163.63C79.9101 166.4 68.3201 164.5 58.4301 162.04C42.5201 158.07 27.2301 151.62 12.6601 144.19C6.52012 141.06 1.08012 150.32 7.24012 153.46C28.1901 164.14 51.7201 174.41 75.5501 175.48C86.5001 175.97 98.3101 174.45 106.16 166.03C115.67 155.82 116.58 138.07 116.63 124.82C116.68 111.42 109.55 99.98 97.9601 93.37C84.4801 85.67 68.3001 86.33 53.5401 89.13C45.7001 90.62 37.9901 92.75 30.1901 94.42C23.4601 95.86 13.8001 99.01 11.2901 90.25C9.38012 83.59 12.0001 76.17 15.0601 70.29C18.1201 64.41 21.9301 57.43 26.7001 52.39C36.6401 41.88 55.6801 41.67 68.9501 44.03C75.3101 45.16 81.5401 47.14 87.5601 49.46C95.6801 52.59 95.2101 59.82 93.9401 67.32C92.8001 74.08 103.14 76.98 104.29 70.17L104.3 70.18Z" fill="#008D47"/>
<path d="M139.46 26.25C133.67 46.14 131.11 67.66 134.54 88.21C135.76 95.54 137.98 102.7 139.02 110.06C140.18 118.28 139.16 126.38 136.77 134.29C134.77 140.92 145.13 143.75 147.12 137.14C149.49 129.27 150.7 121.04 150.05 112.82C149.48 105.68 147.54 98.82 146.1 91.83C141.79 70.95 143.88 49.47 149.81 29.1C151.74 22.46 141.39 19.62 139.46 26.25Z" fill="#008D47"/>
<path d="M140.42 54.8C150.39 56.76 159.69 49.18 168.26 45.04C178.3 40.19 188.56 35.82 198.81 31.46C205.15 28.76 199.68 19.51 193.39 22.19C184.89 25.81 176.39 29.43 168.01 33.32C163.97 35.2 159.96 37.14 155.99 39.17C152.57 40.93 147.31 45.24 143.26 44.45C136.51 43.13 133.62 53.47 140.41 54.8H140.42Z" fill="#008D47"/>
<path d="M157.89 84.92C167.86 87.6 177.84 90.28 187.81 92.96C194.49 94.75 197.34 84.4 190.66 82.61C180.69 79.93 170.71 77.25 160.74 74.57C154.06 72.78 151.21 83.13 157.89 84.92Z" fill="#008D47"/>
<path d="M146.07 139.95C154.22 133.32 163.74 134.03 173.26 136.84C182.92 139.68 192.23 142.67 202.33 140.24C209.04 138.62 206.2 128.27 199.48 129.89C187.99 132.65 176.75 125.54 165.5 124.16C155.5 122.93 146.22 126.06 138.48 132.37C133.12 136.73 140.76 144.29 146.07 139.96V139.95Z" fill="#008D47"/>
<path d="M229.71 158.2C232.15 150.13 238.34 143.92 239.96 135.46C241.7 126.34 240.57 116.65 241.12 107.41C242.32 87.41 246.44 67.75 252.99 48.83C255.25 42.29 244.89 39.48 242.64 45.98C236.2 64.61 232.16 83.98 230.65 103.64C229.92 113.16 231.15 123.22 229.61 132.61C228.25 140.91 221.78 147.35 219.36 155.35C217.36 161.98 227.71 164.81 229.71 158.2Z" fill="#008D47"/>
<path d="M245.96 59.9C248.13 78.49 252.98 95.83 260.27 113.02C269.78 135.46 280.27 157.49 289.99 179.84C291.95 184.34 298.56 182.55 299.8 178.56C307.56 153.51 308.34 127.04 311.88 101.22C314.33 83.35 313.48 66.3 309.81 48.49C308.42 41.73 298.07 44.59 299.46 51.34C302.84 67.72 303.47 84.1 301.31 99.96C297.87 125.25 297.05 151.17 289.45 175.7L299.26 174.42C289.84 152.75 279.71 131.39 270.42 109.67C263.58 93.67 258.71 77.22 256.69 59.89C255.9 53.11 245.16 53.03 245.96 59.89V59.9Z" fill="#008D47"/>
<path d="M430.43 63.59C413.89 48.16 392.33 31.32 369.04 43.95C359.67 49.03 352.47 57.65 346.62 66.36C340.32 75.74 336.61 86.43 337.01 97.82C337.37 108.14 340.74 119.82 347.8 127.64C351.66 131.92 356.52 132.51 361.96 133.2C368.52 134.03 375.11 134.49 381.72 134.55C388.33 134.61 394.93 134.3 401.5 133.6C404.48 133.28 407.45 132.89 410.41 132.44C413.13 132.03 418.83 129.82 421.33 130.88C425.11 132.48 423.72 144.02 423.73 147.11C423.76 153.57 424.35 160.94 420.96 166.72C417.86 172.01 411.99 176.36 406.96 179.7C401.1 183.6 394.65 182.99 388.05 181.47C375.78 178.66 365.13 171.87 357.06 162.27C352.61 156.98 345.05 164.6 349.47 169.86C356.36 178.05 365.11 184.41 375 188.5C384.89 192.59 396.86 195.6 406.78 191.88C411.98 189.93 416.42 186.1 420.67 182.62C424.92 179.14 428.96 175.07 431.37 169.99C433.9 164.66 434.36 158.75 434.46 152.94C434.57 146.54 434.82 139.84 433.96 133.49C433.31 128.67 431.28 124.05 426.91 121.51C421.75 118.5 415.79 120.71 410.37 121.62C397.21 123.84 383.72 124.32 370.42 123.3C366.91 123.03 363.34 122.74 359.87 122.13C356.88 121.61 355.69 120.56 354.07 118.03C350.91 113.1 348.88 107.56 348.09 101.76C346.46 89.79 350.52 79.26 357.37 69.63C364.22 60 373.98 49.87 386.71 50.13C401.39 50.43 412.82 61.78 422.86 71.14C427.91 75.85 435.51 68.27 430.45 63.55L430.43 63.59Z" fill="#008D47"/>
<path d="M592.74 178.99C603.18 161.46 609.68 141.94 611.76 121.64C612.89 110.63 612.8 99.5 613.49 88.45C614.22 76.76 615.35 65.1 616.81 53.48C617.67 46.64 606.93 46.71 606.08 53.48C603.38 74.95 603 96.39 601.36 117.92C599.87 137.61 593.56 156.64 583.47 173.58C579.93 179.53 589.2 184.93 592.74 179V178.99Z" fill="#008D47"/>
<path d="M615.54 66.35C621.72 63.56 628.8 59.06 635.49 58.98C642.18 58.9 648.76 61.3 654.29 64.74C659.46 67.96 664.32 72.64 666.71 78.34C671.17 88.98 668.01 100.98 661.91 110.26C658.83 114.94 654.16 118.91 648.49 119.85C643.89 120.61 640.05 118.22 636.16 116.16C631.55 113.72 626.94 111.27 622.34 108.83C616.25 105.6 610.9 114.65 616.92 118.1C623.16 121.68 632.84 123.73 634.94 131.37C635.88 134.8 636.23 138.21 637.45 141.59C642.45 155.47 650.51 168.34 658.23 180.82C661.86 186.68 671.15 181.3 667.5 175.4C659.93 163.17 651.23 150.23 646.98 136.32C645.64 131.95 645.48 127.42 643.27 123.3C639.05 115.45 629.61 112.99 622.33 108.82L616.91 118.09C624.5 122.12 632.53 127.82 640.91 129.99C647.47 131.69 654.52 130.11 660.24 126.62C668.57 121.55 674.02 112.47 677.1 103.41C684.22 82.45 674.51 61.85 654.78 52.84C647.94 49.72 640.24 47.66 632.67 48.41C625.1 49.16 617.23 53.85 610.11 57.07C603.83 59.91 609.28 69.16 615.53 66.34L615.54 66.35Z" fill="#008D47"/>
<path d="M711.56 194.35C715.02 185.42 713.59 174.94 713.47 165.58C713.33 154.73 712.77 143.78 713.42 132.94C714.03 122.75 716.45 112.75 717.47 102.6C718.58 91.58 718.68 80.51 717.93 69.47C717.47 62.62 706.73 62.56 707.2 69.47C707.9 79.86 707.86 90.28 706.92 100.66C705.98 111.04 703.63 120.8 702.82 130.97C701.98 141.47 702.56 152.1 702.7 162.62C702.82 171.82 704.61 182.75 701.21 191.5C698.71 197.94 709.08 200.73 711.56 194.35Z" fill="#008D47"/>
<path d="M743.15 56.87C752.02 74.65 751.98 94.96 750.9 114.35C750.31 124.95 749.49 135.55 748.76 146.14C748.12 155.44 746.71 165.23 748.96 174.42C751.21 183.61 757.1 189.07 766.94 189.5C775.59 189.87 784.23 186.46 790.53 180.59C796.83 174.72 800.31 167 803.24 159.23C806.96 149.36 810.21 139.28 813.66 129.31C817.56 118.06 822.36 106.71 824.6 94.97C826.84 83.23 824.91 72.97 822.18 61.91C820.53 55.21 810.17 58.05 811.83 64.76C813.99 73.52 815.91 82.17 814.4 91.21C812.92 100.12 809.44 108.69 806.5 117.2C803.3 126.45 800.09 135.71 796.89 144.96C794.3 152.45 792.01 160.22 787.8 167C783.59 173.78 776.77 178.56 768.54 178.77C763.78 178.9 761.19 177.74 759.72 173.13C758.44 169.11 758.42 164.82 758.56 160.64C759.17 142.55 761.39 124.53 761.98 106.43C762.59 87.54 760.95 68.56 752.41 51.43C749.33 45.25 740.07 50.68 743.14 56.85L743.15 56.87Z" fill="#008D47"/>
<path d="M841.9 172.05C842.69 161.33 848.86 151.93 852.64 142.11C856.93 130.99 856.34 119.24 857.56 107.56C858.85 95.25 861.31 83.05 864.72 71.15C866.45 65.12 868.44 59.16 870.68 53.3C872.92 47.44 875.16 41.54 875.32 35.03C875.49 28.12 864.76 28.12 864.59 35.03C864.43 41.39 861.5 47.22 859.34 53.09C857.18 58.96 855.27 64.97 853.61 71.02C850.34 82.99 848.12 95.23 846.83 107.57C845.54 119.91 846.03 130.55 841.34 141.58C837.07 151.62 831.98 160.97 831.17 172.05C830.66 178.94 841.4 178.91 841.9 172.05Z" fill="#008D47"/>
<path d="M863.74 41.19C860.58 55.29 862.19 69.44 865.19 83.42C868.19 97.4 871.99 111.88 875.44 126.08C876.8 131.66 884.01 130.66 885.79 126.08C891.59 111.17 896.32 96.31 904.33 82.32C911.76 69.34 923.76 63.15 936.91 57.08L928.84 52.45C927.69 62.56 926.18 72.74 926.16 82.94C926.14 93.14 928.26 102.14 929.76 111.72C932.9 131.74 933.75 152.08 932.71 172.3C932.35 179.2 943.09 179.18 943.44 172.3C944.47 152.35 943.52 132.42 940.68 112.65C939.26 102.74 936.87 93 936.89 82.94C936.91 72.88 938.42 62.57 939.57 52.45C940.08 47.99 934.74 46.32 931.5 47.82C917.34 54.36 904.17 61.61 895.95 75.39C886.91 90.53 881.79 106.93 875.45 123.23H885.8C882.65 110.26 879.36 97.32 876.38 84.31C873.4 71.3 871.08 57.48 874.09 44.05C875.6 37.32 865.25 34.45 863.74 41.2V41.19Z" fill="#008D47"/>
</g>
<defs>
<clipPath id="clip0_394_121">
<rect width="943.85" height="197.96" fill="white"/>
</clipPath>
</defs>
</svg>
